<?xml version="1.0" encoding="UTF-8"?>
<svg version="1.1" xmlns="http://www.w3.org/2000/svg" width="60" height="60">
<path d="M0 0 C10.89 0 21.78 0 33 0 C33.495 2.475 33.495 2.475 34 5 C35.88370471 6.3169667 35.88370471 6.3169667 38 7 C38.66 7.33 39.32 7.66 40 8 C40 7.34 40 6.68 40 6 C39.01 5.67 38.02 5.34 37 5 C37 4.34 37 3.68 37 3 C43.625 2.75 43.625 2.75 47 5 C47.1546875 5.928125 47.1546875 5.928125 47.3125 6.875 C48.41252524 10.27507802 51.01631862 11.22126687 54 13 C54.94875 13.5775 55.8975 14.155 56.875 14.75 C57.57625 15.1625 58.2775 15.575 59 16 C58.505 18.475 58.505 18.475 58 21 C55.03 21.495 55.03 21.495 52 22 C51.34 24.64 50.68 27.28 50 30 C52.31 30.66 54.62 31.32 57 32 C57 33.98 57 35.96 57 38 C55.02 38.99 53.04 39.98 51 41 C51.350625 41.721875 51.70125 42.44375 52.0625 43.1875 C53.10409017 46.3122705 52.89096572 47.88161996 52 51 C48.18510326 52.46726798 45.70988378 51.43336419 42 50 C41.34 52.31 40.68 54.62 40 57 C38.02 57 36.04 57 34 57 C33.01 55.02 32.02 53.04 31 51 C30.2575 51.350625 29.515 51.70125 28.75 52.0625 C25.82879218 53.0583663 24.81513699 53.06781058 22 52 C21.34 51.67 20.68 51.34 20 51 C20.66 48.03 21.32 45.06 22 42 C19.69 41.34 17.38 40.68 15 40 C14.67 45.61 14.34 51.22 14 57 C9.38 57 4.76 57 0 57 C0 38.19 0 19.38 0 0 Z M33 9 C33 10.65 33 12.3 33 14 C26.73 14 20.46 14 14 14 C14 16.31 14 18.62 14 21 C14.65226563 20.98839844 15.30453125 20.97679687 15.9765625 20.96484375 C20.7761914 20.91529006 25.27784685 21.00586249 30 22 C30.66 19.69 31.32 17.38 32 15 C34.8125 15.125 34.8125 15.125 38 16 C39.875 19.0625 39.875 19.0625 41 22 C43.64 21.01 46.28 20.02 49 19 C45.39569319 14.69808542 42.39046715 13.15570781 36.98828125 11.67578125 C35 11 35 11 33 9 Z M31 33 C30.49989476 35.95769177 30.49989476 35.95769177 31 39 C32.55797882 41.14782671 32.55797882 41.14782671 35 42 C37.70835053 41.65022176 37.70835053 41.65022176 40 40 C41.65022176 37.70835053 41.65022176 37.70835053 42 35 C41.14782671 32.55797882 41.14782671 32.55797882 39 31 C34.48823711 30.40207451 34.48823711 30.40207451 31 33 Z " fill="#290000" transform="translate(0,3)"/>
<path d="M0 0 C9.57 0 19.14 0 29 0 C29 3.3 29 6.6 29 10 C22.73 10 16.46 10 10 10 C10 13.63 10 17.26 10 21 C13.63 21 17.26 21 21 21 C21 23.97 21 26.94 21 30 C17.37 30 13.74 30 10 30 C10 37.59 10 45.18 10 53 C6.7 53 3.4 53 0 53 C0 35.51 0 18.02 0 0 Z " fill="#DB2323" transform="translate(2,5)"/>
<path d="M0 0 C0.99 0 1.98 0 3 0 C3.66 1.98 4.32 3.96 5 6 C8.49234244 6.09978121 11.59437148 5.77842938 15 5 C14.70703125 7.01822917 14.4140625 9.03645833 14.12109375 11.0546875 C13.8315703 13.08140667 13.8315703 13.08140667 15 15 C16.97888961 15.72693904 18.97954558 16.39816251 21 17 C20.505 18.485 20.505 18.485 20 20 C17.4375 21.1875 17.4375 21.1875 15 22 C14.79859524 25.62528568 15.14223235 27.86501708 17 31 C13.18243176 32.37432457 9.92744671 31.67975039 6 31 C5.34 33.31 4.68 35.62 4 38 C2.515 37.505 2.515 37.505 1 37 C-0.1875 34.4375 -0.1875 34.4375 -1 32 C-4.49234244 31.90021879 -7.59437148 32.22157062 -11 33 C-10.67 29.7 -10.34 26.4 -10 23 C-11.98 22.67 -13.96 22.34 -16 22 C-16 20.68 -16 19.36 -16 18 C-12.535 17.505 -12.535 17.505 -9 17 C-9 13.7 -9 10.4 -9 7 C-5.535 6.505 -5.535 6.505 -2 6 C-1.34 4.02 -0.68 2.04 0 0 Z M-3 16 C-3.50010524 18.95769177 -3.50010524 18.95769177 -3 22 C-1.44202118 24.14782671 -1.44202118 24.14782671 1 25 C3.70835053 24.65022176 3.70835053 24.65022176 6 23 C7.65022176 20.70835053 7.65022176 20.70835053 8 18 C7.14782671 15.55797882 7.14782671 15.55797882 5 14 C0.48823711 13.40207451 0.48823711 13.40207451 -3 16 Z " fill="#6B97C8" transform="translate(34,20)"/>
<path d="M0 0 C1.98 0 3.96 0 6 0 C6.99 1.98 7.98 3.96 9 6 C9.7425 5.649375 10.485 5.29875 11.25 4.9375 C14.17120782 3.9416337 15.18486301 3.93218942 18 5 C18.66 5.33 19.32 5.66 20 6 C19.34 8.97 18.68 11.94 18 15 C20.31 15.66 22.62 16.32 25 17 C25 18.98 25 20.96 25 23 C23.02 23.99 21.04 24.98 19 26 C19.350625 26.721875 19.70125 27.44375 20.0625 28.1875 C21.10409017 31.3122705 20.89096572 32.88161996 20 36 C16.18510326 37.46726798 13.70988378 36.43336419 10 35 C9.34 37.31 8.68 39.62 8 42 C6.02 42 4.04 42 2 42 C1.01 40.02 0.02 38.04 -1 36 C-1.7425 36.350625 -2.485 36.70125 -3.25 37.0625 C-6.17120782 38.0583663 -7.18486301 38.06781058 -10 37 C-10.66 36.67 -11.32 36.34 -12 36 C-11.34 33.03 -10.68 30.06 -10 27 C-12.31 26.34 -14.62 25.68 -17 25 C-17 23.02 -17 21.04 -17 19 C-15.35 19 -13.7 19 -12 19 C-12.66 20.32 -13.32 21.64 -14 23 C-12.02 23.66 -10.04 24.32 -8 25 C-6.84162374 29.05431692 -7.16308743 31.21812119 -9 35 C-8.278125 34.67 -7.55625 34.34 -6.8125 34 C-3.98302573 32.99396471 -1.97104534 32.83022598 1 33 C1.99 34.98 2.98 36.96 4 39 C4.66 39 5.32 39 6 39 C6.66 37.02 7.32 35.04 8 33 C11.69541586 32.04975021 14.30458414 32.04975021 18 33 C17.505 32.1646875 17.505 32.1646875 17 31.3125 C15.8690399 28.69715478 15.84337026 26.8193354 16 24 C16.969375 23.54625 17.93875 23.0925 18.9375 22.625 C22.07079582 21.34213779 22.07079582 21.34213779 23 19 C20.69 18.34 18.38 17.68 16 17 C14.84162374 12.94568308 15.16308743 10.78187881 17 7 C16.278125 7.33 15.55625 7.66 14.8125 8 C11.98302573 9.00603529 9.97104534 9.16977402 7 9 C5.5393715 6.35261084 5 5.10551666 5 2 C4.01 2.33 3.02 2.66 2 3 C0.77479736 6.00847418 0.77479736 6.00847418 0 9 C-1.65 9.33 -3.3 9.66 -5 10 C-5.66 8.68 -6.32 7.36 -7 6 C-5.35 6.33 -3.7 6.66 -2 7 C-1.34 4.69 -0.68 2.38 0 0 Z " fill="#05083D" transform="translate(32,18)"/>
<path d="M0 0 C1.32 0 2.64 0 4 0 C3.70703125 2.01822917 3.4140625 4.03645833 3.12109375 6.0546875 C2.8315703 8.08140667 2.8315703 8.08140667 4 10 C5.97888961 10.72693904 7.97954558 11.39816251 10 12 C9.67 12.99 9.34 13.98 9 15 C6.4375 16.1875 6.4375 16.1875 4 17 C3.79859524 20.62528568 4.14223235 22.86501708 6 26 C2.18243176 27.37432457 -1.07255329 26.67975039 -5 26 C-5.66 28.31 -6.32 30.62 -7 33 C-8.485 32.505 -8.485 32.505 -10 32 C-11.1875 29.4375 -11.1875 29.4375 -12 27 C-15.49234244 26.90021879 -18.59437148 27.22157062 -22 28 C-21.67 24.7 -21.34 21.4 -21 18 C-22.98 17.67 -24.96 17.34 -27 17 C-27 15.68 -27 14.36 -27 13 C-24.29120665 11.64560332 -21.99066732 11.93498549 -19 12 C-18.773125 13.0725 -18.54625 14.145 -18.3125 15.25 C-16.83962549 19.45821287 -15.84023084 20.81805066 -12 23 C-8.11996324 23.47510654 -5.22293286 23.3020949 -2 21 C0.30567313 17.77205762 0.32369432 14.88433181 0 11 C-1.11208165 8.00593401 -2.64829956 6.13790949 -5 4 C-4.360625 3.71125 -3.72125 3.4225 -3.0625 3.125 C-0.84793921 2.17176549 -0.84793921 2.17176549 0 0 Z " fill="#6792C3" transform="translate(45,25)"/>
<path d="M0 0 C1.65 0 3.3 0 5 0 C5.33 0.33 5.66 0.66 6 1 C7.84891946 1.23363881 9.70488031 1.41303635 11.5625 1.5625 C12.57441406 1.64628906 13.58632813 1.73007812 14.62890625 1.81640625 C15.80259766 1.90728516 15.80259766 1.90728516 17 2 C17 3.65 17 5.3 17 7 C13.37 7 9.74 7 6 7 C6 14.59 6 22.18 6 30 C4.02 30 2.04 30 0 30 C0 20.1 0 10.2 0 0 Z " fill="#CA1414" transform="translate(4,26)"/>
<path d="M0 0 C6.625 -0.25 6.625 -0.25 10 2 C10.103125 2.61875 10.20625 3.2375 10.3125 3.875 C11.41252524 7.27507802 14.01631862 8.22126687 17 10 C18.423125 10.86625 18.423125 10.86625 19.875 11.75 C20.57625 12.1625 21.2775 12.575 22 13 C21.67 14.65 21.34 16.3 21 18 C18.5 18.9375 18.5 18.9375 15 19 C12.87289468 17.41693419 11.0616362 15.62777389 9.16015625 13.78125 C6.27562596 11.40268615 3.47266636 10.57869911 -0.1171875 9.703125 C-2 9 -2 9 -4 6 C-3.625 3.8125 -3.625 3.8125 -3 2 C-1 3 1 4 3 5 C3 4.34 3 3.68 3 3 C2.01 2.67 1.02 2.34 0 2 C0 1.34 0 0.68 0 0 Z " fill="#FF0000" transform="translate(37,6)"/>
<path d="M0 0 C1.32 0 2.64 0 4 0 C3.70703125 2.01822917 3.4140625 4.03645833 3.12109375 6.0546875 C2.8315703 8.08140667 2.8315703 8.08140667 4 10 C5.97888961 10.72693904 7.97954558 11.39816251 10 12 C9.67 12.99 9.34 13.98 9 15 C6.4375 16.1875 6.4375 16.1875 4 17 C3.79859524 20.62528568 4.14223235 22.86501708 6 26 C2.18243176 27.37432457 -1.07255329 26.67975039 -5 26 C-5.66 27.32 -6.32 28.64 -7 30 C-7 28.35 -7 26.7 -7 25 C-4.42786866 23.38050989 -3.32330841 22.95591249 -0.25 23.375 C0.86375 23.684375 0.86375 23.684375 2 24 C1.7215625 22.6078125 1.7215625 22.6078125 1.4375 21.1875 C1 18 1 18 2 15 C2.66 14.34 3.32 13.68 4 13 C3.38125 12.7525 2.7625 12.505 2.125 12.25 C-0.4072196 10.76045906 -0.80718658 9.62418952 -2 7 C-3.5412312 5.29078411 -3.5412312 5.29078411 -5 4 C-4.360625 3.71125 -3.72125 3.4225 -3.0625 3.125 C-0.84793921 2.17176549 -0.84793921 2.17176549 0 0 Z " fill="#6892C3" transform="translate(45,25)"/>
<path d="M0 0 C4.0743356 0.84881992 5.54405875 2.30225596 8 5.625 C8.625 8.625 8.625 8.625 8 11.625 C5.54405875 14.94774404 4.0743356 16.40118008 0 17.25 C-4.0743356 16.40118008 -5.54405875 14.94774404 -8 11.625 C-8.625 8.625 -8.625 8.625 -8 5.625 C-5.54405875 2.30225596 -4.0743356 0.84881992 0 0 Z M-5 5.625 C-5.50010524 8.58269177 -5.50010524 8.58269177 -5 11.625 C-3.44202118 13.77282671 -3.44202118 13.77282671 -1 14.625 C1.70835053 14.27522176 1.70835053 14.27522176 4 12.625 C5.65022176 10.33335053 5.65022176 10.33335053 6 7.625 C5.14782671 5.18297882 5.14782671 5.18297882 3 3.625 C-1.51176289 3.02707451 -1.51176289 3.02707451 -5 5.625 Z " fill="#060A3F" transform="translate(36,30.375)"/>
<path d="M0 0 C0.66 0 1.32 0 2 0 C2.33 7.26 2.66 14.52 3 22 C1.02 22 -0.96 22 -3 22 C-3.11044961 15.26257354 -2.70132913 8.70019789 -2 2 C-1.34 2 -0.68 2 0 2 C0 1.34 0 0.68 0 0 Z " fill="#B50808" transform="translate(7,34)"/>
<path d="M0 0 C1.98 0.66 3.96 1.32 6 2 C3 4 3 4 1 4 C1 6.97 1 9.94 1 13 C-3.455 13.495 -3.455 13.495 -8 14 C-8.33 15.32 -8.66 16.64 -9 18 C-9.66 17.01 -10.32 16.02 -11 15 C-13.19454681 14.42006301 -13.19454681 14.42006301 -15.625 14.3125 C-16.44226563 14.24675781 -17.25953125 14.18101563 -18.1015625 14.11328125 C-18.72804688 14.07589844 -19.35453125 14.03851563 -20 14 C-19.34 12.68 -18.68 11.36 -18 10 C-16.948125 10.495 -16.948125 10.495 -15.875 11 C-11.93995948 12.36870975 -8.72614245 12.57538082 -4.75 11.25 C-1.57715015 8.98367868 -1.09519809 6.49503005 -0.375 2.75 C-0.25125 1.8425 -0.1275 0.935 0 0 Z " fill="#2C5792" transform="translate(46,36)"/>
<path d="M0 0 C3.98964728 0.83117652 5.50348869 2.46764746 8 5.625 C8 6.615 8 7.605 8 8.625 C5 7.625 5 7.625 3 4.625 C-1.05445642 4.19367485 -2.54970958 4.32480639 -6 6.625 C-6.72965366 9.18782742 -6.72965366 9.18782742 -7 11.625 C-7.33 11.625 -7.66 11.625 -8 11.625 C-8.46707789 7.60813013 -8.32150834 6.05998188 -5.875 2.75 C-3 0.625 -3 0.625 0 0 Z " fill="#0A0E43" transform="translate(36,30.375)"/>
<path d="M0 0 C2 6.625 2 6.625 2 10 C1.67 9.34 1.34 8.68 1 8 C0.01 8 -0.98 8 -2 8 C-2 7.34 -2 6.68 -2 6 C-4.97 5.505 -4.97 5.505 -8 5 C-8 3.68 -8 2.36 -8 1 C-5.29120665 -0.35439668 -2.99066732 -0.06501451 0 0 Z " fill="#547DB1" transform="translate(26,37)"/>
<path d="M0 0 C1.06671952 3.20015856 0.94845472 4.88544294 0.5625 8.1875 C0.46066406 9.08855469 0.35882813 9.98960938 0.25390625 10.91796875 C0.17011719 11.60503906 0.08632813 12.29210938 0 13 C-2 11 -2 11 -2.1953125 8.8359375 C-2.13020833 6.55729167 -2.06510417 4.27864583 -2 2 C-5.63 2 -9.26 2 -13 2 C-13 1.67 -13 1.34 -13 1 C-11.20843648 0.83222817 -9.4167455 0.66581706 -7.625 0.5 C-6.62726562 0.4071875 -5.62953125 0.314375 -4.6015625 0.21875 C-2 0 -2 0 0 0 Z " fill="#310B10" transform="translate(25,24)"/>
<path d="M0 0 C0.99 0 1.98 0 3 0 C3.66 2.31 4.32 4.62 5 7 C3.33388095 7.042721 1.66617115 7.04063832 0 7 C-1 6 -1 6 -1.125 3.5 C-1 1 -1 1 0 0 Z " fill="#658DBE" transform="translate(34,20)"/>
<path d="M0 0 C0.66 0.33 1.32 0.66 2 1 C1.67 4.3 1.34 7.6 1 11 C-3.875 6.25 -3.875 6.25 -5 4 C-4.360625 3.71125 -3.72125 3.4225 -3.0625 3.125 C-0.84793921 2.17176549 -0.84793921 2.17176549 0 0 Z " fill="#5D88BB" transform="translate(45,25)"/>
<path d="M0 0 C1.98 0.66 3.96 1.32 6 2 C3 4 3 4 1 4 C0.67 5.98 0.34 7.96 0 10 C-0.66 9.34 -1.32 8.68 -2 8 C-1.7578125 6.0546875 -1.7578125 6.0546875 -1.125 3.875 C-0.92132813 3.15054688 -0.71765625 2.42609375 -0.5078125 1.6796875 C-0.34023438 1.12539063 -0.17265625 0.57109375 0 0 Z " fill="#3F6BA3" transform="translate(46,36)"/>
<path d="M0 0 C0.66 0 1.32 0 2 0 C3.6875 1.8125 3.6875 1.8125 5 4 C4.67 4.99 4.34 5.98 4 7 C3.01 6.67 2.02 6.34 1 6 C0.67 4.02 0.34 2.04 0 0 Z " fill="#6089BB" transform="translate(34,51)"/>
<path d="M0 0 C1.65 0 3.3 0 5 0 C4.67 0.66 4.34 1.32 4 2 C4.66 2.66 5.32 3.32 6 4 C4.02 4 2.04 4 0 4 C0 2.68 0 1.36 0 0 Z " fill="#658FC0" transform="translate(18,38)"/>
<path d="M0 0 C0.99 0.33 1.98 0.66 3 1 C2.360625 1.556875 1.72125 2.11375 1.0625 2.6875 C-1.19680987 5.22066561 -1.63149047 6.68341424 -2 10 C-2.33 10 -2.66 10 -3 10 C-3.36923077 4.58461538 -3.36923077 4.58461538 -1.5 1.625 C-1.005 1.08875 -0.51 0.5525 0 0 Z " fill="#10184D" transform="translate(31,32)"/>
<path d="M0 0 C0.99 0 1.98 0 3 0 C3 0.99 3 1.98 3 3 C3.66 3 4.32 3 5 3 C5 3.99 5 4.98 5 6 C3.68 5.67 2.36 5.34 1 5 C0.67 3.35 0.34 1.7 0 0 Z " fill="#0C1146" transform="translate(47,30)"/>
<path d="M0 0 C4.875 1.75 4.875 1.75 6 4 C3.36 4 0.72 4 -2 4 C-1.34 2.68 -0.68 1.36 0 0 Z " fill="#3B67A0" transform="translate(28,46)"/>
</svg>
