<?xml version="1.0" encoding="UTF-8"?>
<svg version="1.1" xmlns="http://www.w3.org/2000/svg" width="1024" height="1024">
<path d="M0 0 C337.92 0 675.84 0 1024 0 C1024 337.92 1024 675.84 1024 1024 C686.08 1024 348.16 1024 0 1024 C0 686.08 0 348.16 0 0 Z " fill="#FEFEFE" transform="translate(0,0)"/>
<path d="M0 0 C1.91425781 -0.01836914 1.91425781 -0.01836914 3.8671875 -0.03710938 C24.01522017 -0.06801127 37.86783759 5.76758273 54 17.1875 C54.58007812 17.59661621 55.16015625 18.00573242 55.7578125 18.42724609 C58.6326736 20.45950378 61.49576279 22.50746293 64.3515625 24.56640625 C68.29627234 27.40818985 72.27326101 30.20330765 76.25 33 C84.4533802 38.77853428 92.5907292 44.64596447 100.71630859 50.53320312 C107.47135222 55.42652958 114.23360525 60.30988415 121 65.1875 C121.62358398 65.63722168 122.24716797 66.08694336 122.88964844 66.55029297 C128.93239431 70.90350952 135.00292358 75.20319141 141.16186523 79.39086914 C169.19867681 98.47871596 169.19867681 98.47871596 173 116.1875 C173.08835726 117.77460843 173.12553025 119.36497139 173.12584114 120.95453739 C173.12975276 122.39758136 173.12975276 122.39758136 173.13374341 123.86977774 C173.13151268 124.92442848 173.12928196 125.97907923 173.12698364 127.06568909 C173.12854363 128.18913048 173.13010362 129.31257188 173.13171089 130.47005695 C173.13571355 134.25291897 173.13253325 138.03574116 173.12939453 141.81860352 C173.13019917 144.52865177 173.13249435 147.23869831 173.13470459 149.94874573 C173.13916643 156.5788126 173.13818036 163.20886818 173.13529195 169.8389355 C173.13302303 175.27808641 173.13273188 180.71723418 173.13381577 186.15638542 C173.13404561 187.32344394 173.13404561 187.32344394 173.13428011 188.5140794 C173.13459994 190.09636172 173.13492416 191.67864404 173.1352527 193.26092636 C173.13811285 208.15421097 173.13482062 223.04748946 173.12945233 237.94077306 C173.12506002 250.50747498 173.12574445 263.07416743 173.13037109 275.64086914 C173.17599497 403.27238482 173.17599497 403.27238482 172.5546875 459.58984375 C172.53997524 460.96965231 172.53997524 460.96965231 172.52496576 462.37733579 C171.73757484 536.15761171 171.73757484 536.15761171 159.8125 549 C145.66497106 561.68934065 130.47062356 562.66922924 112.34375 563.546875 C110.25836075 563.65674472 108.17302968 563.76772343 106.0877533 563.87971497 C101.5928264 564.11900918 97.09760839 564.3511378 92.60202026 564.57766724 C85.37863934 564.94192621 78.1561947 565.32281887 70.93383789 565.70678711 C63.26695802 566.11384085 55.60005147 566.52027316 47.93287659 566.92173767 C20.08143998 568.38139259 -7.76383173 569.94762697 -35.60876846 571.52606201 C-39.56852915 571.75034149 -43.52832289 571.97402791 -47.48812866 572.19750977 C-79.56671491 574.00810008 -111.642581 575.85806239 -143.71458054 577.78181458 C-147.96665681 578.03662859 -152.21880127 578.29029786 -156.47094727 578.54394531 C-157.28441525 578.59248594 -158.09788324 578.64102657 -158.93600178 578.69103813 C-162.88636944 578.9267559 -166.83674374 579.16236184 -170.78712463 579.39785767 C-177.26801196 579.78438079 -183.74884712 580.17160707 -190.22931004 580.56519032 C-237.31589535 583.42458411 -237.31589535 583.42458411 -257.21459961 583.6043396 C-258.69073872 583.61768414 -260.16684307 583.63651989 -261.64282227 583.66201782 C-278.51015417 583.91428333 -294.04384155 579.95832735 -306.625 568.125 C-311.52048131 562.91424619 -315.5078645 557.08234252 -319.57080078 551.22412109 C-322.19702694 547.48172638 -324.91160008 543.80443705 -327.625 540.125 C-328.21168457 539.32860107 -328.79836914 538.53220215 -329.40283203 537.71166992 C-333.89479725 531.63540412 -338.46802933 525.62396374 -343.0625 519.625 C-348.54031525 512.47222607 -353.8938397 505.24794496 -359.13916016 497.92333984 C-363.16655381 492.31026059 -367.28268603 486.76931204 -371.4375 481.25 C-381.93362236 467.28912503 -381.93362236 467.28912503 -386.5625 461.0625 C-387.40155884 459.94500366 -387.40155884 459.94500366 -388.25756836 458.80493164 C-393.63226667 451.55260947 -398.83542028 444.21094536 -401.3125 435.4375 C-401.61800781 434.39078125 -401.92351562 433.3440625 -402.23828125 432.265625 C-405.41105534 419.44436353 -405.15003573 405.78605535 -405.13371277 392.65319824 C-405.13558765 391.2689837 -405.13789101 389.88476968 -405.14057809 388.50055647 C-405.14661841 384.74806246 -405.14657184 380.99559099 -405.14538372 377.24309325 C-405.14517773 373.17622402 -405.150717 369.10936166 -405.15544128 365.04249573 C-405.16370437 357.09570041 -405.1664941 349.14891252 -405.16705366 341.20211327 C-405.16753066 334.73857718 -405.16959454 328.27504351 -405.17275429 321.81150818 C-405.18154711 303.44901592 -405.18617553 285.08652947 -405.18542381 266.72403508 C-405.18538386 265.73664159 -405.1853439 264.7492481 -405.18530273 263.73193359 C-405.18526185 262.74332264 -405.18522097 261.75471168 -405.18517885 260.73614281 C-405.18477223 244.70774009 -405.19434948 228.67936085 -405.2084411 212.65096492 C-405.22282693 196.15671845 -405.22971015 179.66248343 -405.22884732 163.16823053 C-405.22851624 153.92240054 -405.23122491 144.67659519 -405.24202538 135.43077087 C-405.25115923 127.56197992 -405.25328183 119.6932248 -405.24651595 111.82443082 C-405.24326596 107.81633497 -405.24313873 103.80830777 -405.2518692 99.80021858 C-405.2598024 96.12010366 -405.2582343 92.44011104 -405.24958507 88.75999886 C-405.24735361 86.82206245 -405.25482453 84.88412203 -405.26282471 82.94620085 C-405.19570909 65.594791 -403.95730202 48.53989704 -391.375 35.50390625 C-376.94271137 22.10726796 -352.3952222 23.5527045 -333.9140625 22.3203125 C-331.59650465 22.15964511 -329.27899573 21.99827051 -326.96153259 21.83624268 C-320.79346616 21.40716321 -314.62473306 20.98853188 -308.4557991 20.57213593 C-303.29807418 20.22256638 -298.14080447 19.86652427 -292.98352909 19.51039314 C-261.66579803 17.34802027 -230.34283294 15.26885901 -199.01409912 13.27255249 C-166.32519508 11.1890486 -133.65870108 8.81677685 -100.99113083 6.42481422 C-89.50178161 5.58373643 -78.01150416 4.75758022 -66.51953125 3.953125 C-65.84492481 3.90589861 -65.17031837 3.85867222 -64.47526932 3.81001472 C-57.68258606 3.3348545 -50.88968022 2.86293342 -44.09667969 2.39233398 C-42.47206062 2.27936981 -42.47206062 2.27936981 -40.81462097 2.16412354 C-38.85366467 2.02782868 -36.89266128 1.89220835 -34.93159485 1.75750732 C-30.21234701 1.42942039 -25.49971164 1.0609356 -20.78686523 0.65039062 C-13.85123438 0.06579048 -6.95757908 0.00351393 0 0 Z " fill="#FEFEFD" transform="translate(613,211.8125)"/>
<path d="M0 0 C1.91425781 -0.01836914 1.91425781 -0.01836914 3.8671875 -0.03710938 C24.01522017 -0.06801127 37.86783759 5.76758273 54 17.1875 C54.58007812 17.59661621 55.16015625 18.00573242 55.7578125 18.42724609 C58.6326736 20.45950378 61.49576279 22.50746293 64.3515625 24.56640625 C68.29627234 27.40818985 72.27326101 30.20330765 76.25 33 C84.4533802 38.77853428 92.5907292 44.64596447 100.71630859 50.53320312 C107.47135222 55.42652958 114.23360525 60.30988415 121 65.1875 C121.62358398 65.63722168 122.24716797 66.08694336 122.88964844 66.55029297 C128.93239431 70.90350952 135.00292358 75.20319141 141.16186523 79.39086914 C169.19867681 98.47871596 169.19867681 98.47871596 173 116.1875 C173.08835726 117.77460843 173.12553025 119.36497139 173.12584114 120.95453739 C173.12975276 122.39758136 173.12975276 122.39758136 173.13374341 123.86977774 C173.13151268 124.92442848 173.12928196 125.97907923 173.12698364 127.06568909 C173.12854363 128.18913048 173.13010362 129.31257188 173.13171089 130.47005695 C173.13571355 134.25291897 173.13253325 138.03574116 173.12939453 141.81860352 C173.13019917 144.52865177 173.13249435 147.23869831 173.13470459 149.94874573 C173.13916643 156.5788126 173.13818036 163.20886818 173.13529195 169.8389355 C173.13302303 175.27808641 173.13273188 180.71723418 173.13381577 186.15638542 C173.13404561 187.32344394 173.13404561 187.32344394 173.13428011 188.5140794 C173.13459994 190.09636172 173.13492416 191.67864404 173.1352527 193.26092636 C173.13811285 208.15421097 173.13482062 223.04748946 173.12945233 237.94077306 C173.12506002 250.50747498 173.12574445 263.07416743 173.13037109 275.64086914 C173.17599497 403.27238482 173.17599497 403.27238482 172.5546875 459.58984375 C172.53997524 460.96965231 172.53997524 460.96965231 172.52496576 462.37733579 C171.73757484 536.15761171 171.73757484 536.15761171 159.8125 549 C145.66497106 561.68934065 130.47062356 562.66922924 112.34375 563.546875 C110.25836075 563.65674472 108.17302968 563.76772343 106.0877533 563.87971497 C101.5928264 564.11900918 97.09760839 564.3511378 92.60202026 564.57766724 C85.37863934 564.94192621 78.1561947 565.32281887 70.93383789 565.70678711 C63.26695802 566.11384085 55.60005147 566.52027316 47.93287659 566.92173767 C20.08143998 568.38139259 -7.76383173 569.94762697 -35.60876846 571.52606201 C-39.56852915 571.75034149 -43.52832289 571.97402791 -47.48812866 572.19750977 C-79.56671491 574.00810008 -111.642581 575.85806239 -143.71458054 577.78181458 C-147.96665681 578.03662859 -152.21880127 578.29029786 -156.47094727 578.54394531 C-157.28441525 578.59248594 -158.09788324 578.64102657 -158.93600178 578.69103813 C-162.88636944 578.9267559 -166.83674374 579.16236184 -170.78712463 579.39785767 C-177.26801196 579.78438079 -183.74884712 580.17160707 -190.22931004 580.56519032 C-237.31589535 583.42458411 -237.31589535 583.42458411 -257.21459961 583.6043396 C-258.69073872 583.61768414 -260.16684307 583.63651989 -261.64282227 583.66201782 C-278.51015417 583.91428333 -294.04384155 579.95832735 -306.625 568.125 C-311.52048131 562.91424619 -315.5078645 557.08234252 -319.57080078 551.22412109 C-322.19702694 547.48172638 -324.91160008 543.80443705 -327.625 540.125 C-328.21168457 539.32860107 -328.79836914 538.53220215 -329.40283203 537.71166992 C-333.89479725 531.63540412 -338.46802933 525.62396374 -343.0625 519.625 C-348.54031525 512.47222607 -353.8938397 505.24794496 -359.13916016 497.92333984 C-363.16655381 492.31026059 -367.28268603 486.76931204 -371.4375 481.25 C-381.93362236 467.28912503 -381.93362236 467.28912503 -386.5625 461.0625 C-387.40155884 459.94500366 -387.40155884 459.94500366 -388.25756836 458.80493164 C-393.63226667 451.55260947 -398.83542028 444.21094536 -401.3125 435.4375 C-401.61800781 434.39078125 -401.92351562 433.3440625 -402.23828125 432.265625 C-405.41105534 419.44436353 -405.15003573 405.78605535 -405.13371277 392.65319824 C-405.13558765 391.2689837 -405.13789101 389.88476968 -405.14057809 388.50055647 C-405.14661841 384.74806246 -405.14657184 380.99559099 -405.14538372 377.24309325 C-405.14517773 373.17622402 -405.150717 369.10936166 -405.15544128 365.04249573 C-405.16370437 357.09570041 -405.1664941 349.14891252 -405.16705366 341.20211327 C-405.16753066 334.73857718 -405.16959454 328.27504351 -405.17275429 321.81150818 C-405.18154711 303.44901592 -405.18617553 285.08652947 -405.18542381 266.72403508 C-405.18538386 265.73664159 -405.1853439 264.7492481 -405.18530273 263.73193359 C-405.18526185 262.74332264 -405.18522097 261.75471168 -405.18517885 260.73614281 C-405.18477223 244.70774009 -405.19434948 228.67936085 -405.2084411 212.65096492 C-405.22282693 196.15671845 -405.22971015 179.66248343 -405.22884732 163.16823053 C-405.22851624 153.92240054 -405.23122491 144.67659519 -405.24202538 135.43077087 C-405.25115923 127.56197992 -405.25328183 119.6932248 -405.24651595 111.82443082 C-405.24326596 107.81633497 -405.24313873 103.80830777 -405.2518692 99.80021858 C-405.2598024 96.12010366 -405.2582343 92.44011104 -405.24958507 88.75999886 C-405.24735361 86.82206245 -405.25482453 84.88412203 -405.26282471 82.94620085 C-405.19570909 65.594791 -403.95730202 48.53989704 -391.375 35.50390625 C-376.94271137 22.10726796 -352.3952222 23.5527045 -333.9140625 22.3203125 C-331.59650465 22.15964511 -329.27899573 21.99827051 -326.96153259 21.83624268 C-320.79346616 21.40716321 -314.62473306 20.98853188 -308.4557991 20.57213593 C-303.29807418 20.22256638 -298.14080447 19.86652427 -292.98352909 19.51039314 C-261.66579803 17.34802027 -230.34283294 15.26885901 -199.01409912 13.27255249 C-166.32519508 11.1890486 -133.65870108 8.81677685 -100.99113083 6.42481422 C-89.50178161 5.58373643 -78.01150416 4.75758022 -66.51953125 3.953125 C-65.84492481 3.90589861 -65.17031837 3.85867222 -64.47526932 3.81001472 C-57.68258606 3.3348545 -50.88968022 2.86293342 -44.09667969 2.39233398 C-42.47206062 2.27936981 -42.47206062 2.27936981 -40.81462097 2.16412354 C-38.85366467 2.02782868 -36.89266128 1.89220835 -34.93159485 1.75750732 C-30.21234701 1.42942039 -25.49971164 1.0609356 -20.78686523 0.65039062 C-13.85123438 0.06579048 -6.95757908 0.00351393 0 0 Z M91.37109375 128.2890625 C89.4247501 128.40763673 87.47837876 128.52575694 85.53198242 128.64346313 C81.35492027 128.89664154 77.1780048 129.15207217 73.00119019 129.40930176 C61.69940926 130.10472772 50.39659097 130.78299512 39.09375 131.4609375 C37.9179431 131.53156403 36.74213619 131.60219055 35.53069878 131.67495728 C7.50481877 133.35638949 -20.52804219 134.90678646 -48.5625 136.4375 C-49.70714344 136.50004219 -50.85178688 136.56258438 -52.03111649 136.62702179 C-61.86628052 137.16438037 -71.70145811 137.70148419 -81.53683472 138.23493958 C-90.36371312 138.71398925 -99.19043714 139.19438264 -108.01586914 139.69946289 C-125.27414596 140.68486015 -142.53590664 141.56789718 -159.80217552 142.40251541 C-163.68075502 142.59008428 -167.55929323 142.7784857 -171.43782043 142.96713257 C-174.06076003 143.0946344 -176.6837001 143.22212661 -179.30664062 143.34960938 C-181.27567116 143.44533454 -181.27567116 143.44533454 -183.28448009 143.54299355 C-189.97928112 143.86810673 -196.6742057 144.1903315 -203.36938477 144.50756836 C-238.64289616 146.08506067 -238.64289616 146.08506067 -273.85546875 148.62890625 C-275.05528885 148.72662827 -276.25510895 148.82435028 -277.49128723 148.92503357 C-283.27308081 149.50190316 -287.59775789 150.05876605 -292 154.1875 C-294.5140514 158.43426182 -295.37498202 161.54080601 -295.37473011 166.45484447 C-295.38193665 167.7000959 -295.3891432 168.94534733 -295.39656812 170.22833365 C-295.38939167 171.60227169 -295.38193279 172.97620829 -295.3742218 174.35014343 C-295.37696311 175.81591401 -295.3810158 177.28168262 -295.38626546 178.74744636 C-295.39685142 182.77169103 -295.38872382 186.79571356 -295.37751496 190.81994855 C-295.36867378 195.16161714 -295.37711639 199.50325664 -295.38337708 203.84492493 C-295.39286878 212.3502495 -295.38626127 220.85548927 -295.37411413 229.36080756 C-295.3604915 239.26870008 -295.36213233 249.17657241 -295.36424746 259.08447192 C-295.36743811 276.7681647 -295.35576695 294.45181721 -295.33618164 312.13549805 C-295.31719163 329.28622668 -295.31009025 346.43690809 -295.31567383 363.58764648 C-295.32173656 382.26537733 -295.32154439 400.9430874 -295.310188 419.62081653 C-295.30898073 421.61410669 -295.30777474 423.60739686 -295.30657005 425.60068703 C-295.30596651 426.58139252 -295.30536298 427.56209802 -295.30474115 428.57252186 C-295.30086649 435.47438777 -295.30125393 442.37624594 -295.3031559 449.27811241 C-295.30528179 457.69626248 -295.30002431 466.11437125 -295.28554235 474.53250971 C-295.27831576 478.82547234 -295.2742064 483.11837494 -295.27878571 487.41134262 C-295.2828809 491.34634218 -295.27764354 495.28121815 -295.26515963 499.21619902 C-295.26224694 500.63477646 -295.26264217 502.05336567 -295.26680271 503.47194 C-295.62770408 519.33958322 -295.62770408 519.33958322 -289 533.1875 C-279.02688159 542.87567217 -266.61148345 542.48623865 -253.66845703 542.38378906 C-236.74619795 542.13711626 -219.83565447 540.94243506 -202.94393921 539.96624756 C-190.73971567 539.26101826 -178.53385357 538.58483317 -166.328125 537.90625 C-165.05734289 537.83538052 -163.78656078 537.76451103 -162.47727013 537.69149399 C-133.67894972 536.08720313 -104.87261342 534.65763076 -76.06402969 533.25170135 C-64.62461274 532.693379 -53.18529876 532.13296043 -41.74609375 531.5703125 C-40.53541922 531.51078022 -39.32474468 531.45124794 -38.07738304 531.38991165 C-14.11556055 530.20962765 9.83936891 528.92001889 33.79208755 527.56864548 C46.82607271 526.83389715 59.85902369 526.1212628 72.90234375 525.5703125 C74.50751358 525.50227417 74.50751358 525.50227417 76.14511108 525.43286133 C80.92936257 525.23267291 85.71367941 525.04220643 90.49902344 524.87011719 C111.2430665 524.75010493 111.2430665 524.75010493 128.875 515.4375 C132.90630983 509.27196732 133.30332059 502.69400725 133.39428711 495.52661133 C133.41214075 494.68316099 133.42999439 493.83971066 133.44838905 492.97070122 C133.50527641 490.13290134 133.54793174 487.29508937 133.58984375 484.45703125 C133.62667295 482.38018672 133.66387055 480.3033487 133.70140076 478.22651672 C134.19909396 449.24448395 134.37039355 420.2568403 134.54781771 391.27139568 C134.56258518 388.86109782 134.57752868 386.45080109 134.59249496 384.04050446 C134.74334535 359.64438179 134.86643247 335.24816059 134.97470093 310.85181427 C134.99168022 307.03108798 135.00905365 303.21036378 135.02676392 299.38964081 C135.13657113 275.68983437 135.2290914 251.99010585 135.27481747 228.29008007 C135.27856079 226.36645186 135.28232235 224.44282369 135.28610229 222.51919556 C135.28796234 221.57159223 135.28982239 220.62398891 135.29173881 219.64767033 C135.30586466 212.97245619 135.33032172 206.29732721 135.35916138 199.62216187 C135.39418448 191.48012866 135.41517682 183.33820919 135.41792715 175.19609851 C135.41970156 171.02329405 135.42793165 166.85076329 135.45333099 162.67803001 C135.47644699 158.84458873 135.48095928 155.01159041 135.4706887 151.17809737 C135.47021725 149.78862494 135.47653371 148.39913034 135.49028981 147.00972593 C135.80865509 138.94255735 135.80865509 138.94255735 133.34562683 131.44534302 C128.06519422 126.36252773 122.01802542 126.94595299 115.11233521 127.04998779 C107.18942389 127.28516095 99.28104821 127.79348848 91.37109375 128.2890625 Z " fill="#000000" transform="translate(613,211.8125)"/>
<path d="M0 0 C1.74651855 -0.01969849 1.74651855 -0.01969849 3.52832031 -0.03979492 C8.14049418 0.27121617 10.81477645 1.56383249 14.609375 4.16796875 C17.31705059 8.22948213 17.13152957 11.40330834 16.609375 16.16796875 C14.88925377 20.96620165 12.76247482 23.29662076 8.609375 26.16796875 C5.93606427 27.29296814 3.20699122 28.11646019 0.421875 28.91796875 C-0.30193359 29.13839844 -1.02574219 29.35882813 -1.77148438 29.5859375 C-7.05311044 31.16796875 -7.05311044 31.16796875 -9.390625 31.16796875 C-9.38924231 32.02110232 -9.38924231 32.02110232 -9.38783169 32.89147091 C-9.32241761 74.00164099 -9.32354562 115.11152349 -9.38145989 156.22169578 C-9.38884194 161.56236741 -9.3943823 166.90303886 -9.39916992 172.24371338 C-9.41404307 187.96541544 -9.44562821 203.68683219 -9.52432346 219.40835857 C-9.55732794 226.06408504 -9.58193008 232.71964026 -9.58590698 239.37545776 C-9.59009808 245.61510199 -9.61782362 251.85419348 -9.66399384 258.09366417 C-9.67688766 260.37307226 -9.6813893 262.65254593 -9.67679596 264.93198586 C-9.67192274 268.03765102 -9.6977146 271.14161567 -9.73120117 274.24707031 C-9.72257522 275.14266379 -9.71394926 276.03825727 -9.70506191 276.96098995 C-9.81889135 283.20095509 -11.4728397 287.29650331 -15.390625 292.16796875 C-27.35701532 302.75541956 -49.23811493 301.83209571 -64.31103516 301.30419922 C-72.18842013 300.78816484 -78.45582479 298.31238467 -84.390625 293.16796875 C-86.11103111 290.98266326 -87.56844298 288.94994159 -89.015625 286.60546875 C-89.43183105 285.95690918 -89.84803711 285.30834961 -90.27685547 284.64013672 C-91.18188935 283.22902674 -92.08161705 281.81450232 -92.9765625 280.39697266 C-94.41845319 278.12410284 -95.88466692 275.86888717 -97.359375 273.6171875 C-104.13060318 263.27550153 -110.79319609 252.86475102 -117.44775391 242.44775391 C-121.56759281 236.00278895 -125.71276343 229.57545616 -129.890625 223.16796875 C-134.8050248 215.63045621 -139.67000405 208.06237349 -144.515625 200.48046875 C-153.46210664 186.48237828 -162.49418033 172.54159298 -171.55102539 158.61474609 C-175.95399962 151.84325284 -180.34537397 145.06433216 -184.73046875 138.28125 C-186.47047589 135.58972601 -188.21266684 132.89963949 -189.95703125 130.2109375 C-196.37229454 120.31808443 -202.73604068 110.39269847 -209.0847168 100.45703125 C-209.74383057 99.42578125 -210.40294434 98.39453125 -211.08203125 97.33203125 C-211.67185791 96.4085791 -212.26168457 95.48512695 -212.86938477 94.53369141 C-214.02646216 92.73428843 -215.20394519 90.94798846 -216.390625 89.16796875 C-216.720625 149.22796875 -217.050625 209.28796875 -217.390625 271.16796875 C-212.440625 271.49796875 -207.490625 271.82796875 -202.390625 272.16796875 C-195.49276772 273.77746878 -190.51796861 275.18771325 -186.015625 280.91796875 C-184.63781429 285.87808731 -185.79038199 290.01194518 -188.078125 294.41796875 C-195.40981264 303.13673243 -207.13257815 304.72661283 -217.91357422 305.76367188 C-222.9949778 306.1792061 -228.08051119 306.48328217 -233.17163086 306.75146484 C-236.32060892 306.91757228 -239.46771552 307.10525493 -242.61523438 307.296875 C-251.74599394 307.83524145 -260.88014653 308.2832591 -270.02734375 308.3828125 C-271.96613403 308.40396118 -271.96613403 308.40396118 -273.9440918 308.42553711 C-280.33912398 307.94761978 -285.14690838 305.5436687 -289.515625 300.91796875 C-291.16559416 295.73235141 -290.98429794 291.09740579 -289.390625 285.91796875 C-282.80804578 276.86692232 -273.37817656 276.753275 -262.390625 274.16796875 C-262.390625 198.59796875 -262.390625 123.02796875 -262.390625 45.16796875 C-266.680625 44.83796875 -270.970625 44.50796875 -275.390625 44.16796875 C-284.54051701 42.83146767 -284.54051701 42.83146767 -287.953125 40.16796875 C-291.14321684 35.7295801 -290.94014697 31.49095019 -290.390625 26.16796875 C-288.05596496 20.54356047 -284.18723883 18.66125109 -278.92578125 16.1484375 C-274.66704548 14.50137636 -270.49337848 14.02769426 -265.95556641 13.77905273 C-264.88899811 13.71906601 -263.82242981 13.65907928 -262.72354126 13.59727478 C-261.00027115 13.5065847 -261.00027115 13.5065847 -259.2421875 13.4140625 C-258.03863617 13.34888931 -256.83508484 13.28371613 -255.59506226 13.21656799 C-253.03808526 13.0794121 -250.48100311 12.94420465 -247.92382812 12.81079102 C-244.09202681 12.60948261 -240.26088912 12.39792332 -236.4296875 12.18554688 C-224.78443567 11.55712846 -213.13926433 11.01947665 -201.4765625 10.890625 C-200.55243561 10.87092148 -199.62830872 10.85121796 -198.67617798 10.83091736 C-192.02993298 10.81449528 -186.99199759 11.66945109 -182.01953125 16.4453125 C-177.67359209 22.03999033 -173.58507645 27.71585826 -169.71875 33.65234375 C-166.89750404 37.95687355 -163.91749562 42.14888174 -160.953125 46.35546875 C-148.57289708 63.96888887 -136.56630482 81.83737999 -124.65185547 99.76806641 C-121.87200068 103.94949669 -119.08625425 108.12699862 -116.30078125 112.3046875 C-115.75343323 113.12560883 -115.20608521 113.94653015 -114.64215088 114.79232788 C-112.93336277 117.35507742 -111.22450632 119.91778137 -109.515625 122.48046875 C-107.23819161 125.89577358 -104.96082768 129.31112468 -102.68359375 132.7265625 C-102.13403015 133.55080719 -101.58446655 134.37505188 -101.01824951 135.22427368 C-97.92713174 139.86106692 -94.83882879 144.49970779 -91.75390625 149.140625 C-84.91031035 159.43285809 -78.02365556 169.69431659 -71.078125 179.91796875 C-70.35359131 180.98515137 -69.62905762 182.05233398 -68.88256836 183.15185547 C-68.20846924 184.1420166 -67.53437012 185.13217773 -66.83984375 186.15234375 C-65.94785278 187.46283691 -65.94785278 187.46283691 -65.0378418 188.79980469 C-63.53729649 190.95710267 -61.96733217 193.06569252 -60.390625 195.16796875 C-60.390625 142.36796875 -60.390625 89.56796875 -60.390625 35.16796875 C-67.980625 33.84796875 -75.570625 32.52796875 -83.390625 31.16796875 C-90.22350358 25.47390327 -90.22350358 25.47390327 -90.6640625 22.03125 C-90.88136386 16.57364281 -90.40781271 13.08041116 -87.16796875 8.640625 C-80.81016137 3.37272745 -73.34506899 3.5100766 -65.453125 3.10546875 C-63.52521118 2.99259521 -63.52521118 2.99259521 -61.55834961 2.87744141 C-57.96111741 2.66870484 -54.36310514 2.47858014 -50.76464844 2.29229736 C-48.28166842 2.16226265 -45.79902856 2.02682452 -43.31640625 1.89013672 C-38.02906854 1.59950518 -32.74122735 1.31930356 -27.453125 1.04296875 C-26.61298859 0.99840546 -25.77285217 0.95384216 -24.90725708 0.90792847 C-16.6086119 0.47276044 -8.31059783 0.08628994 0 0 Z " fill="#000000" transform="translate(669.390625,396.83203125)"/>
<path d="M0 0 C0.90689575 -0.00385712 1.8137915 -0.00771423 2.74816895 -0.01168823 C18.1449854 0.07418999 29.64167317 6.94242398 41.921875 15.67578125 C42.92299316 16.38065674 43.92411133 17.08553223 44.95556641 17.81176758 C47.9502454 19.92491565 50.93717852 22.04856383 53.921875 24.17578125 C54.75944336 24.77052246 55.59701172 25.36526367 56.45996094 25.97802734 C64.81325113 31.9172616 73.0689206 37.980721 81.234375 44.17578125 C81.9341748 44.70389404 82.63397461 45.23200684 83.35498047 45.77612305 C87.16437685 48.69081067 90.61668908 51.69798407 93.921875 55.17578125 C87.74119931 56.19402433 81.58376186 56.54175453 75.33203125 56.859375 C74.19704697 56.91980484 73.06206268 56.98023468 71.89268494 57.04249573 C68.25672973 57.23569664 64.62057666 57.42478048 60.984375 57.61328125 C56.26681895 57.8599615 51.54937644 58.10869482 46.83203125 58.359375 C45.60821747 58.42436188 44.38440369 58.48934875 43.12350464 58.55630493 C34.69201321 59.01035739 26.26602094 59.52744389 17.83984375 60.0703125 C-5.25109669 61.54574856 -28.35895193 62.7344198 -51.46337891 63.97598267 C-65.05768583 64.70650276 -78.65170035 65.44244183 -92.24572182 66.1782515 C-94.44054115 66.29703959 -96.63536283 66.41578419 -98.83018494 66.5345211 C-127.77145711 68.10039002 -156.7113403 69.69074188 -185.65034485 71.29801941 C-189.03181395 71.48571072 -192.41330356 71.67302789 -195.7947998 71.86022949 C-202.11847021 72.21039628 -208.4420625 72.56195311 -214.765625 72.9140625 C-215.74915199 72.96869534 -216.73267899 73.02332817 -217.74600983 73.07961655 C-227.46145511 73.62000231 -237.17563058 74.17243685 -246.88671875 74.78662109 C-247.6489122 74.83447722 -248.41110565 74.88233335 -249.19639587 74.93163967 C-252.65181017 75.14897742 -256.10673386 75.37072824 -259.5612793 75.60163879 C-286.7959289 77.34124492 -301.43732261 72.99672801 -322.25244141 55.68554688 C-324.56411208 53.77388982 -326.91135697 51.90961604 -329.265625 50.05078125 C-333.65664493 46.55859426 -337.90689521 42.91465113 -342.16357422 39.26147461 C-346.6346104 35.46288972 -351.28934901 32.0550983 -356.12890625 28.734375 C-356.77214844 28.22003906 -357.41539062 27.70570313 -358.078125 27.17578125 C-358.078125 26.51578125 -358.078125 25.85578125 -358.078125 25.17578125 C-342.29352514 21.65431039 -326.20008291 20.89259797 -310.11000443 19.83149338 C-306.93651927 19.6207126 -303.76353093 19.40289762 -300.59051037 19.18525219 C-280.39445155 17.80139456 -260.19209489 16.55669835 -239.97952271 15.43838501 C-223.09296235 14.50341409 -206.22964233 13.35904313 -189.36306763 12.11740112 C-162.55341368 10.15036437 -135.72601889 8.47381423 -108.89752197 6.78713989 C-79.62121427 4.95204253 -79.62121427 4.95204253 -50.359375 2.90234375 C-48.40741211 2.75862335 -48.40741211 2.75862335 -46.41601562 2.61199951 C-40.65775365 2.18543059 -34.90059878 1.74817025 -29.14453125 1.29296875 C-19.4230292 0.54324316 -9.75302823 0.02911745 0 0 Z " fill="#FDFDFD" transform="translate(615.078125,244.82421875)"/>
</svg>
