<svg id="svg" version="1.1" xmlns="http://www.w3.org/2000/svg" xmlns:xlink="http://www.w3.org/1999/xlink" width="400" height="400" viewBox="0, 0, 400,400"><g id="svgg"><path id="path0" d="M239.800 68.004 C 219.095 69.465,196.610 76.262,170.752 88.876 C 151.624 98.206,129.257 113.434,116.244 125.985 C 98.059 143.524,87.430 164.343,89.236 178.887 C 91.313 195.618,106.439 212.692,138.414 234.400 C 140.196 235.610,142.227 237.019,142.927 237.530 C 143.627 238.042,146.277 239.932,148.817 241.730 C 158.341 248.476,158.487 248.637,156.100 249.754 C 139.785 257.395,118.514 272.542,110.224 282.423 C 94.509 301.154,98.150 327.649,116.879 330.851 C 159.318 338.107,191.902 296.810,178.183 253.154 C 177.432 250.764,198.968 249.624,208.971 251.525 C 238.884 257.211,251.375 282.718,230.700 295.896 C 226.878 298.332,227.681 300.345,231.943 299.014 C 241.111 296.151,248.709 284.960,247.812 275.642 C 245.109 247.559,212.904 232.262,176.000 241.532 L 171.400 242.688 166.452 237.913 C 161.660 233.288,156.970 229.386,147.800 222.398 C 116.157 198.282,108.866 182.487,119.368 160.800 C 127.345 144.328,150.042 124.382,175.000 111.913 C 175.660 111.583,178.900 109.922,182.200 108.222 C 229.416 83.894,279.825 81.926,290.366 103.998 L 291.800 107.000 291.795 113.400 C 291.772 143.838,250.831 174.288,205.187 177.816 C 194.375 178.652,180.855 173.805,174.022 166.645 C 170.671 163.133,169.008 166.277,171.622 171.181 C 174.251 176.113,179.999 181.557,185.154 183.995 C 186.609 184.683,188.109 185.414,188.486 185.618 C 192.794 187.950,212.835 189.487,224.600 188.388 C 274.708 183.707,316.503 142.396,310.384 103.600 C 306.611 79.680,278.099 65.301,239.800 68.004 M166.240 261.700 C 170.515 280.358,160.175 301.764,142.509 310.826 C 129.928 317.280,120.800 315.049,120.800 305.521 C 120.800 291.094,136.725 273.155,160.832 260.424 C 165.626 257.893,165.353 257.828,166.240 261.700 " stroke="none" fill="#fbfbfb" fill-rule="evenodd"></path><path id="path1" d="M182.603 25.279 C 179.965 25.474,177.634 25.806,177.423 26.017 C 177.212 26.228,176.581 26.399,176.020 26.398 C 174.319 26.394,165.014 27.735,164.800 28.014 C 164.690 28.158,162.924 28.579,160.875 28.950 C 158.826 29.321,156.846 29.792,156.475 29.995 C 155.845 30.341,150.812 31.602,149.700 31.693 C 149.425 31.715,149.200 31.860,149.200 32.015 C 149.200 32.169,148.165 32.501,146.900 32.751 C 145.635 33.001,144.080 33.476,143.445 33.808 C 142.810 34.139,141.280 34.701,140.045 35.058 C 138.810 35.415,137.445 35.952,137.011 36.253 C 136.577 36.554,135.964 36.800,135.650 36.800 C 135.335 36.800,133.980 37.314,132.639 37.941 C 131.297 38.569,129.683 39.208,129.052 39.361 C 128.420 39.514,127.679 39.864,127.405 40.138 C 127.130 40.413,126.117 40.891,125.153 41.202 C 124.189 41.512,123.310 41.878,123.200 42.015 C 122.877 42.415,120.322 43.600,119.781 43.600 C 119.509 43.600,119.195 43.835,119.085 44.122 C 118.975 44.409,118.146 44.888,117.243 45.186 C 116.339 45.484,115.600 45.862,115.600 46.025 C 115.600 46.188,115.094 46.498,114.476 46.714 C 113.857 46.929,113.092 47.355,112.776 47.660 C 112.459 47.965,111.435 48.553,110.500 48.968 C 109.565 49.382,108.800 49.872,108.800 50.055 C 108.800 50.239,108.174 50.651,107.409 50.970 C 106.645 51.290,105.621 51.922,105.134 52.376 C 104.647 52.829,104.022 53.200,103.744 53.200 C 103.467 53.200,103.096 53.427,102.920 53.704 C 102.744 53.981,101.925 54.562,101.100 54.995 C 100.275 55.428,99.600 55.882,99.600 56.005 C 99.600 56.127,99.015 56.567,98.300 56.982 C 97.585 57.398,96.856 57.977,96.680 58.269 C 96.504 58.561,96.132 58.800,95.852 58.800 C 95.573 58.800,94.968 59.205,94.508 59.700 C 94.049 60.195,92.801 61.224,91.736 61.986 C 89.467 63.610,88.732 64.212,87.207 65.700 C 86.587 66.305,85.926 66.801,85.740 66.802 C 85.553 66.803,84.560 67.658,83.534 68.702 C 82.507 69.746,81.152 70.994,80.521 71.475 C 79.036 72.609,72.609 79.036,71.475 80.521 C 70.994 81.152,69.746 82.507,68.702 83.534 C 67.658 84.560,66.803 85.553,66.802 85.740 C 66.801 85.926,66.305 86.587,65.700 87.207 C 64.212 88.732,63.610 89.467,61.986 91.736 C 61.224 92.801,60.195 94.049,59.700 94.508 C 59.205 94.968,58.800 95.573,58.800 95.852 C 58.800 96.132,58.561 96.504,58.269 96.680 C 57.977 96.856,57.398 97.585,56.982 98.300 C 56.567 99.015,56.115 99.600,55.978 99.600 C 55.841 99.600,55.385 100.318,54.964 101.195 C 54.544 102.073,54.073 102.793,53.919 102.795 C 53.764 102.798,53.339 103.430,52.973 104.200 C 52.608 104.970,52.177 105.600,52.015 105.600 C 51.854 105.600,51.397 106.320,51.000 107.200 C 50.603 108.080,50.153 108.800,50.000 108.800 C 49.847 108.800,49.382 109.565,48.968 110.500 C 48.553 111.435,47.965 112.459,47.660 112.776 C 47.355 113.092,46.929 113.857,46.714 114.476 C 46.498 115.094,46.188 115.600,46.025 115.600 C 45.862 115.600,45.484 116.339,45.186 117.243 C 44.888 118.146,44.409 118.975,44.122 119.085 C 43.835 119.195,43.600 119.509,43.600 119.781 C 43.600 120.322,42.415 122.877,42.015 123.200 C 41.878 123.310,41.512 124.189,41.202 125.153 C 40.891 126.117,40.413 127.130,40.138 127.405 C 39.864 127.679,39.514 128.420,39.361 129.052 C 39.208 129.683,38.569 131.297,37.941 132.639 C 37.314 133.980,36.800 135.335,36.800 135.650 C 36.800 135.964,36.554 136.577,36.253 137.011 C 35.952 137.445,35.415 138.810,35.058 140.045 C 34.701 141.280,34.139 142.810,33.808 143.445 C 33.476 144.080,33.001 145.635,32.751 146.900 C 32.501 148.165,32.169 149.200,32.015 149.200 C 31.860 149.200,31.708 149.425,31.678 149.700 C 31.554 150.814,30.181 156.229,29.921 156.628 C 29.768 156.863,29.335 158.753,28.959 160.828 C 28.583 162.903,28.158 164.690,28.014 164.800 C 27.729 165.018,26.394 174.333,26.398 176.076 C 26.399 176.668,26.237 177.254,26.037 177.377 C 25.838 177.500,25.561 179.356,25.422 181.501 C 25.284 183.645,25.096 186.120,25.006 187.000 C 24.915 187.880,24.832 189.106,24.820 189.724 C 24.809 190.342,24.632 190.744,24.428 190.617 C 24.223 190.491,23.942 190.570,23.804 190.793 C 23.666 191.017,23.833 191.200,24.176 191.200 C 24.724 191.200,24.802 192.428,24.820 201.300 C 24.832 206.855,24.915 212.120,25.006 213.000 C 25.096 213.880,25.284 216.355,25.422 218.499 C 25.561 220.644,25.838 222.500,26.037 222.623 C 26.237 222.746,26.399 223.332,26.398 223.924 C 26.394 225.667,27.729 234.982,28.014 235.200 C 28.158 235.310,28.579 237.076,28.950 239.125 C 29.321 241.174,29.792 243.154,29.995 243.525 C 30.341 244.155,31.602 249.188,31.693 250.300 C 31.715 250.575,31.858 250.800,32.011 250.800 C 32.164 250.800,32.487 251.784,32.729 252.987 C 32.970 254.189,33.524 255.955,33.959 256.909 C 34.394 257.864,34.973 259.535,35.247 260.623 C 35.521 261.710,35.982 262.838,36.272 263.129 C 36.563 263.419,36.800 263.942,36.800 264.290 C 36.800 264.638,37.314 266.020,37.941 267.361 C 38.569 268.703,39.208 270.317,39.361 270.948 C 39.514 271.580,39.864 272.321,40.138 272.595 C 40.413 272.870,40.891 273.883,41.202 274.847 C 41.512 275.811,41.878 276.690,42.015 276.800 C 42.415 277.123,43.600 279.678,43.600 280.219 C 43.600 280.491,43.835 280.805,44.122 280.915 C 44.409 281.025,44.888 281.854,45.186 282.757 C 45.484 283.661,45.862 284.400,46.025 284.400 C 46.188 284.400,46.498 284.906,46.714 285.524 C 46.929 286.143,47.355 286.908,47.660 287.224 C 47.965 287.541,48.553 288.565,48.968 289.500 C 49.382 290.435,49.847 291.200,50.000 291.200 C 50.153 291.200,50.603 291.920,51.000 292.800 C 51.397 293.680,51.854 294.400,52.015 294.400 C 52.177 294.400,52.608 295.030,52.973 295.800 C 53.339 296.570,53.764 297.202,53.919 297.205 C 54.073 297.207,54.544 297.927,54.964 298.805 C 55.385 299.682,55.841 300.400,55.978 300.400 C 56.115 300.400,56.567 300.985,56.982 301.700 C 57.398 302.415,57.977 303.144,58.269 303.320 C 58.561 303.496,58.800 303.868,58.800 304.148 C 58.800 304.427,59.205 305.032,59.700 305.492 C 60.195 305.951,61.224 307.199,61.986 308.264 C 63.610 310.533,64.212 311.268,65.700 312.793 C 66.305 313.413,66.801 314.074,66.802 314.260 C 66.803 314.447,67.658 315.440,68.702 316.466 C 69.746 317.493,70.994 318.848,71.475 319.479 C 72.609 320.964,79.036 327.391,80.521 328.525 C 81.152 329.006,82.507 330.254,83.534 331.298 C 84.560 332.342,85.553 333.197,85.740 333.198 C 85.926 333.199,86.587 333.695,87.207 334.300 C 88.732 335.788,89.467 336.390,91.736 338.014 C 92.801 338.776,94.049 339.805,94.508 340.300 C 94.968 340.795,95.573 341.200,95.852 341.200 C 96.132 341.200,96.504 341.439,96.680 341.731 C 96.856 342.023,97.585 342.602,98.300 343.018 C 99.015 343.433,99.600 343.873,99.600 343.995 C 99.600 344.118,100.275 344.572,101.100 345.005 C 101.925 345.438,102.744 346.019,102.920 346.296 C 103.096 346.573,103.467 346.800,103.744 346.800 C 104.022 346.800,104.647 347.171,105.134 347.624 C 105.621 348.078,106.645 348.710,107.409 349.030 C 108.174 349.349,108.800 349.761,108.800 349.945 C 108.800 350.128,109.565 350.618,110.500 351.034 C 111.435 351.450,112.549 352.107,112.975 352.495 C 113.402 352.883,113.974 353.200,114.247 353.200 C 114.520 353.200,114.981 353.438,115.272 353.729 C 115.563 354.020,116.655 354.584,117.700 354.983 C 118.745 355.382,119.600 355.827,119.600 355.972 C 119.600 356.117,120.410 356.570,121.400 356.978 C 122.390 357.387,123.200 357.873,123.200 358.060 C 123.200 358.247,123.515 358.402,123.900 358.405 C 124.285 358.408,125.660 358.948,126.956 359.605 C 128.252 360.262,129.467 360.800,129.655 360.800 C 129.844 360.800,131.141 361.340,132.538 362.000 C 133.935 362.660,135.362 363.200,135.710 363.200 C 136.058 363.200,136.581 363.433,136.871 363.719 C 137.162 364.004,138.615 364.564,140.100 364.963 C 141.585 365.362,142.800 365.826,142.800 365.994 C 142.800 366.161,144.240 366.625,146.000 367.025 C 147.760 367.424,149.200 367.867,149.200 368.009 C 149.200 368.151,149.425 368.285,149.700 368.307 C 150.812 368.398,155.845 369.659,156.475 370.005 C 156.846 370.208,158.826 370.679,160.875 371.050 C 162.924 371.421,164.690 371.842,164.800 371.986 C 165.014 372.265,174.319 373.606,176.020 373.602 C 176.581 373.601,177.211 373.770,177.420 373.977 C 178.929 375.474,221.071 375.474,222.580 373.977 C 222.789 373.770,223.419 373.601,223.980 373.602 C 225.681 373.606,234.986 372.265,235.200 371.986 C 235.310 371.842,237.076 371.421,239.125 371.050 C 241.174 370.679,243.154 370.208,243.525 370.005 C 243.896 369.801,245.370 369.378,246.800 369.065 C 250.397 368.278,250.574 368.230,250.800 367.970 C 251.129 367.593,255.972 366.521,255.754 366.875 C 255.643 367.054,255.863 367.200,256.243 367.200 C 256.623 367.200,256.822 367.089,256.686 366.952 C 256.203 366.470,257.519 365.646,259.844 364.974 C 261.140 364.600,262.555 364.048,262.989 363.747 C 263.423 363.446,264.036 363.200,264.350 363.200 C 264.665 363.200,266.020 362.686,267.361 362.059 C 268.703 361.431,270.317 360.792,270.948 360.639 C 271.580 360.486,272.321 360.136,272.595 359.862 C 272.870 359.587,273.883 359.109,274.847 358.798 C 275.811 358.488,276.690 358.122,276.800 357.985 C 277.123 357.585,279.678 356.400,280.219 356.400 C 280.491 356.400,280.805 356.165,280.915 355.878 C 281.025 355.591,281.854 355.112,282.757 354.814 C 283.661 354.516,284.400 354.138,284.400 353.975 C 284.400 353.812,284.906 353.502,285.524 353.286 C 286.143 353.071,286.908 352.645,287.224 352.340 C 287.541 352.035,288.565 351.447,289.500 351.032 C 290.435 350.618,291.200 350.153,291.200 350.000 C 291.200 349.847,291.920 349.397,292.800 349.000 C 293.680 348.603,294.400 348.146,294.400 347.985 C 294.400 347.823,295.030 347.392,295.800 347.027 C 296.570 346.661,297.202 346.236,297.205 346.081 C 297.207 345.927,297.927 345.456,298.805 345.036 C 299.682 344.615,300.400 344.159,300.400 344.022 C 300.400 343.885,300.985 343.433,301.700 343.018 C 302.415 342.602,303.144 342.023,303.320 341.731 C 303.496 341.439,303.868 341.200,304.148 341.200 C 304.427 341.200,305.032 340.795,305.492 340.300 C 305.951 339.805,307.199 338.776,308.264 338.014 C 310.533 336.390,311.268 335.788,312.793 334.300 C 313.413 333.695,314.074 333.199,314.260 333.198 C 314.447 333.197,315.440 332.342,316.466 331.298 C 317.493 330.254,318.848 329.006,319.479 328.525 C 320.964 327.391,327.391 320.964,328.525 319.479 C 329.006 318.848,330.254 317.493,331.298 316.466 C 332.342 315.440,333.197 314.447,333.198 314.260 C 333.199 314.074,333.695 313.413,334.300 312.793 C 335.788 311.268,336.390 310.533,338.014 308.264 C 338.776 307.199,339.805 305.951,340.300 305.492 C 340.795 305.032,341.200 304.427,341.200 304.148 C 341.200 303.868,341.439 303.496,341.731 303.320 C 342.023 303.144,342.602 302.415,343.018 301.700 C 343.433 300.985,343.885 300.400,344.022 300.400 C 344.159 300.400,344.615 299.682,345.036 298.805 C 345.456 297.927,345.927 297.207,346.081 297.205 C 346.236 297.202,346.661 296.570,347.027 295.800 C 347.392 295.030,347.823 294.400,347.985 294.400 C 348.146 294.400,348.603 293.680,349.000 292.800 C 349.397 291.920,349.847 291.200,350.000 291.200 C 350.153 291.200,350.618 290.435,351.032 289.500 C 351.447 288.565,352.035 287.541,352.340 287.224 C 352.645 286.908,353.071 286.143,353.286 285.524 C 353.502 284.906,353.812 284.400,353.975 284.400 C 354.138 284.400,354.516 283.661,354.814 282.757 C 355.112 281.854,355.591 281.025,355.878 280.915 C 356.165 280.805,356.400 280.491,356.400 280.219 C 356.400 279.678,357.585 277.123,357.985 276.800 C 358.122 276.690,358.488 275.811,358.798 274.847 C 359.109 273.883,359.587 272.870,359.862 272.595 C 360.136 272.321,360.486 271.580,360.639 270.948 C 360.792 270.317,361.431 268.703,362.059 267.361 C 362.686 266.020,363.200 264.665,363.200 264.350 C 363.200 264.036,363.448 263.423,363.752 262.989 C 364.055 262.555,364.619 261.075,365.005 259.700 C 365.390 258.325,365.841 257.200,366.007 257.200 C 366.173 257.200,366.409 256.705,366.531 256.100 C 367.216 252.702,367.738 250.800,367.986 250.800 C 368.141 250.800,368.285 250.575,368.307 250.300 C 368.398 249.188,369.659 244.155,370.005 243.525 C 370.208 243.154,370.679 241.174,371.050 239.125 C 371.421 237.076,371.842 235.310,371.986 235.200 C 372.270 234.983,373.606 225.669,373.602 223.933 C 373.601 223.347,373.766 222.807,373.970 222.733 C 375.463 222.194,375.471 178.925,373.977 177.420 C 373.770 177.211,373.601 176.581,373.602 176.020 C 373.606 174.319,372.265 165.014,371.986 164.800 C 371.842 164.690,371.421 162.924,371.050 160.875 C 370.679 158.826,370.208 156.846,370.005 156.475 C 369.659 155.845,368.398 150.812,368.307 149.700 C 368.285 149.425,368.141 149.200,367.986 149.200 C 367.738 149.200,367.216 147.298,366.531 143.900 C 366.409 143.295,366.173 142.800,366.007 142.800 C 365.841 142.800,365.390 141.675,365.005 140.300 C 364.619 138.925,364.055 137.445,363.752 137.011 C 363.448 136.577,363.200 135.964,363.200 135.650 C 363.200 135.335,362.686 133.980,362.059 132.639 C 361.431 131.297,360.792 129.683,360.639 129.052 C 360.486 128.420,360.136 127.679,359.862 127.405 C 359.587 127.130,359.109 126.117,358.798 125.153 C 358.488 124.189,358.122 123.310,357.985 123.200 C 357.585 122.877,356.400 120.322,356.400 119.781 C 356.400 119.509,356.165 119.195,355.878 119.085 C 355.591 118.975,355.112 118.146,354.814 117.243 C 354.516 116.339,354.138 115.600,353.975 115.600 C 353.812 115.600,353.502 115.094,353.286 114.476 C 353.071 113.857,352.645 113.092,352.340 112.776 C 352.035 112.459,351.447 111.435,351.032 110.500 C 350.618 109.565,350.128 108.800,349.945 108.800 C 349.761 108.800,349.349 108.174,349.030 107.409 C 348.710 106.645,348.078 105.621,347.624 105.134 C 347.171 104.647,346.800 104.022,346.800 103.744 C 346.800 103.467,346.573 103.096,346.296 102.920 C 346.019 102.744,345.438 101.925,345.005 101.100 C 344.572 100.275,344.118 99.600,343.995 99.600 C 343.873 99.600,343.433 99.015,343.018 98.300 C 342.602 97.585,342.023 96.856,341.731 96.680 C 341.439 96.504,341.200 96.132,341.200 95.852 C 341.200 95.573,340.795 94.968,340.300 94.508 C 339.805 94.049,338.776 92.801,338.014 91.736 C 336.390 89.467,335.788 88.732,334.300 87.207 C 333.695 86.587,333.199 85.926,333.198 85.740 C 333.197 85.553,332.342 84.560,331.298 83.534 C 330.254 82.507,329.006 81.152,328.525 80.521 C 327.391 79.036,320.964 72.609,319.479 71.475 C 318.848 70.994,317.493 69.746,316.466 68.702 C 315.440 67.658,314.447 66.803,314.260 66.802 C 314.074 66.801,313.413 66.305,312.793 65.700 C 311.268 64.212,310.533 63.610,308.264 61.986 C 307.199 61.224,305.951 60.195,305.492 59.700 C 305.032 59.205,304.427 58.800,304.148 58.800 C 303.868 58.800,303.496 58.561,303.320 58.269 C 303.144 57.977,302.415 57.398,301.700 56.982 C 300.985 56.567,300.400 56.115,300.400 55.978 C 300.400 55.841,299.682 55.385,298.805 54.964 C 297.927 54.544,297.207 54.073,297.205 53.919 C 297.202 53.764,296.570 53.339,295.800 52.973 C 295.030 52.608,294.400 52.177,294.400 52.015 C 294.400 51.854,293.680 51.397,292.800 51.000 C 291.920 50.603,291.200 50.153,291.200 50.000 C 291.200 49.847,290.435 49.382,289.500 48.968 C 288.565 48.553,287.541 47.965,287.224 47.660 C 286.908 47.355,286.143 46.929,285.524 46.714 C 284.906 46.498,284.400 46.188,284.400 46.025 C 284.400 45.862,283.661 45.484,282.757 45.186 C 281.854 44.888,281.025 44.409,280.915 44.122 C 280.805 43.835,280.491 43.600,280.219 43.600 C 279.678 43.600,277.123 42.415,276.800 42.015 C 276.690 41.878,275.811 41.512,274.847 41.202 C 273.883 40.891,272.873 40.415,272.602 40.144 C 272.331 39.874,271.177 39.347,270.039 38.975 C 268.900 38.602,267.307 37.961,266.499 37.549 C 265.692 37.137,264.749 36.800,264.404 36.800 C 264.060 36.800,263.423 36.554,262.989 36.253 C 262.555 35.952,261.190 35.415,259.955 35.058 C 258.720 34.701,257.190 34.139,256.555 33.808 C 255.920 33.476,254.365 33.001,253.100 32.751 C 251.835 32.501,250.800 32.169,250.800 32.015 C 250.800 31.860,250.575 31.708,250.300 31.678 C 249.186 31.554,243.771 30.181,243.372 29.921 C 243.137 29.768,241.247 29.335,239.172 28.959 C 237.097 28.583,235.310 28.158,235.200 28.014 C 234.986 27.735,225.681 26.394,223.980 26.398 C 223.419 26.399,222.789 26.230,222.580 26.023 C 221.545 24.996,193.502 24.474,182.603 25.279 M260.927 67.999 C 278.956 70.004,291.885 75.340,301.028 84.549 C 324.712 108.403,306.024 155.770,264.541 177.031 C 262.309 178.175,259.789 179.334,258.941 179.607 C 258.094 179.881,257.216 180.249,256.991 180.426 C 254.923 182.050,239.388 186.661,232.065 187.823 C 224.221 189.069,222.831 189.178,214.600 189.197 C 191.394 189.250,178.877 184.307,171.639 172.231 C 168.278 166.622,170.401 162.381,174.494 166.528 C 183.050 175.196,196.517 178.860,211.600 176.624 C 229.876 173.915,242.157 169.794,255.800 161.795 C 273.868 151.201,288.079 134.210,290.948 119.772 C 292.795 110.480,291.471 104.245,286.618 99.371 C 278.411 91.127,257.336 87.001,238.600 89.970 C 229.681 91.383,221.338 93.186,216.000 94.855 C 214.570 95.302,212.230 96.032,210.800 96.477 C 209.370 96.922,207.076 97.719,205.703 98.249 C 204.329 98.779,201.989 99.680,200.503 100.251 C 186.508 105.625,167.141 116.152,151.596 126.835 C 143.439 132.441,129.240 145.318,127.450 148.733 C 127.258 149.100,126.895 149.580,126.644 149.800 C 125.948 150.410,122.290 155.947,121.094 158.200 C 113.836 171.872,113.918 185.588,121.326 196.600 C 121.917 197.480,122.878 198.920,123.460 199.800 C 125.439 202.791,134.576 211.437,141.800 217.155 C 149.545 223.285,149.339 223.124,153.638 226.400 C 158.334 229.978,164.764 235.516,168.326 239.050 L 171.653 242.350 174.085 241.573 C 186.793 237.513,208.710 237.647,219.906 241.852 C 247.733 252.305,257.359 281.115,238.132 296.400 C 235.348 298.613,229.689 300.503,228.586 299.589 C 227.249 298.479,227.891 297.343,231.141 295.065 C 247.022 283.937,241.411 263.731,220.028 255.042 C 209.670 250.834,189.091 249.490,180.100 252.436 C 178.535 252.949,178.546 252.446,179.988 257.829 C 185.095 276.877,180.702 296.968,168.100 312.200 C 155.530 327.393,134.725 334.890,115.413 331.185 C 101.067 328.433,95.448 307.709,104.300 290.200 C 110.284 278.365,128.695 263.651,154.523 250.063 L 157.246 248.630 155.552 247.215 C 154.620 246.437,153.453 245.530,152.959 245.200 C 152.464 244.870,149.391 242.696,146.130 240.369 C 142.868 238.041,137.155 234.015,133.433 231.422 C 129.711 228.828,126.471 226.548,126.233 226.356 C 125.995 226.163,123.069 223.857,119.731 221.231 C 104.171 208.990,93.863 196.519,90.589 185.972 C 90.218 184.777,89.619 182.990,89.257 182.000 C 88.494 179.908,88.395 171.661,89.103 169.000 C 90.692 163.020,91.300 160.958,91.579 160.604 C 91.753 160.382,92.127 159.480,92.410 158.600 C 97.583 142.513,117.225 121.640,143.800 103.989 C 151.673 98.760,153.558 97.621,163.400 92.157 C 165.665 90.899,171.933 87.799,176.400 85.727 C 178.490 84.758,180.495 83.804,180.855 83.607 C 181.964 83.001,194.336 78.177,199.200 76.454 C 214.168 71.151,223.206 69.217,241.200 67.464 C 245.509 67.045,254.545 67.290,260.927 67.999 M159.400 261.720 C 134.728 275.502,120.441 292.366,121.304 306.686 C 121.701 313.265,126.752 315.515,135.603 313.056 C 156.780 307.172,171.690 280.885,165.524 260.305 C 164.962 258.429,165.522 258.300,159.400 261.720 " stroke="none" fill="#cc649c" fill-rule="evenodd"></path><path id="path2" d="M250.500 89.094 C 251.545 89.176,253.255 89.176,254.300 89.094 C 255.345 89.012,254.490 88.944,252.400 88.944 C 250.310 88.944,249.455 89.012,250.500 89.094 M133.578 141.500 L 132.200 143.000 133.700 141.622 C 134.525 140.863,135.200 140.188,135.200 140.122 C 135.200 139.816,134.862 140.104,133.578 141.500 M88.501 175.800 C 88.505 176.680,88.587 176.993,88.683 176.495 C 88.779 175.998,88.775 175.278,88.675 174.895 C 88.575 174.513,88.496 174.920,88.501 175.800 M176.200 178.000 C 177.059 178.880,177.852 179.600,177.962 179.600 C 178.072 179.600,177.459 178.880,176.600 178.000 C 175.741 177.120,174.948 176.400,174.838 176.400 C 174.728 176.400,175.341 177.120,176.200 178.000 M206.500 189.076 C 206.885 189.176,207.515 189.176,207.900 189.076 C 208.285 188.975,207.970 188.893,207.200 188.893 C 206.430 188.893,206.115 188.975,206.500 189.076 M220.100 189.076 C 220.485 189.176,221.115 189.176,221.500 189.076 C 221.885 188.975,221.570 188.893,220.800 188.893 C 220.030 188.893,219.715 188.975,220.100 189.076 M193.513 250.695 C 194.676 250.776,196.476 250.776,197.513 250.693 C 198.551 250.611,197.600 250.545,195.400 250.546 C 193.200 250.547,192.351 250.614,193.513 250.695 M112.987 278.900 L 110.600 281.400 113.100 279.013 C 115.422 276.795,115.783 276.400,115.487 276.400 C 115.426 276.400,114.301 277.525,112.987 278.900 M132.975 280.900 L 131.800 282.200 133.100 281.025 C 134.312 279.930,134.584 279.600,134.275 279.600 C 134.206 279.600,133.621 280.185,132.975 280.900 M152.975 302.900 L 151.800 304.200 153.100 303.025 C 154.312 301.930,154.584 301.600,154.275 301.600 C 154.206 301.600,153.621 302.185,152.975 302.900 M120.901 305.400 C 120.905 306.280,120.987 306.593,121.083 306.095 C 121.179 305.598,121.175 304.878,121.075 304.495 C 120.975 304.113,120.896 304.520,120.901 305.400 M128.900 314.276 C 129.285 314.376,129.915 314.376,130.300 314.276 C 130.685 314.175,130.370 314.093,129.600 314.093 C 128.830 314.093,128.515 314.175,128.900 314.276 " stroke="none" fill="#dc94bc" fill-rule="evenodd"></path><path id="path3" d="M241.705 67.887 C 242.314 67.979,243.214 67.977,243.705 67.882 C 244.197 67.787,243.700 67.711,242.600 67.714 C 241.500 67.717,241.097 67.795,241.705 67.887 M253.905 67.883 C 254.402 67.979,255.122 67.975,255.505 67.875 C 255.887 67.775,255.480 67.696,254.600 67.701 C 253.720 67.705,253.407 67.787,253.905 67.883 M229.300 69.076 C 229.685 69.176,230.315 69.176,230.700 69.076 C 231.085 68.975,230.770 68.893,230.000 68.893 C 229.230 68.893,228.915 68.975,229.300 69.076 M245.100 89.089 C 245.815 89.178,246.985 89.178,247.700 89.089 C 248.415 89.001,247.830 88.928,246.400 88.928 C 244.970 88.928,244.385 89.001,245.100 89.089 M257.100 89.089 C 257.815 89.178,258.985 89.178,259.700 89.089 C 260.415 89.001,259.830 88.928,258.400 88.928 C 256.970 88.928,256.385 89.001,257.100 89.089 M240.705 89.483 C 241.202 89.579,241.922 89.575,242.305 89.475 C 242.687 89.375,242.280 89.296,241.400 89.301 C 240.520 89.305,240.207 89.387,240.705 89.483 M261.700 89.476 C 262.085 89.576,262.715 89.576,263.100 89.476 C 263.485 89.375,263.170 89.293,262.400 89.293 C 261.630 89.293,261.315 89.375,261.700 89.476 M271.400 91.200 C 271.840 91.389,272.470 91.544,272.800 91.544 C 273.178 91.544,273.104 91.417,272.600 91.200 C 272.160 91.011,271.530 90.856,271.200 90.856 C 270.822 90.856,270.896 90.983,271.400 91.200 M188.300 105.029 C 186.805 105.840,186.896 106.178,188.400 105.400 C 189.060 105.059,189.600 104.694,189.600 104.590 C 189.600 104.332,189.557 104.347,188.300 105.029 M310.950 111.000 C 310.951 113.420,311.016 114.358,311.096 113.085 C 311.176 111.812,311.175 109.832,311.094 108.685 C 311.014 107.538,310.949 108.580,310.950 111.000 M180.300 109.029 C 178.805 109.840,178.896 110.178,180.400 109.400 C 181.060 109.059,181.600 108.694,181.600 108.590 C 181.600 108.332,181.557 108.347,180.300 109.029 M290.629 121.829 C 290.481 122.415,290.438 122.972,290.532 123.066 C 290.627 123.160,290.824 122.758,290.971 122.171 C 291.119 121.585,291.162 121.028,291.068 120.934 C 290.973 120.840,290.776 121.242,290.629 121.829 M114.591 127.300 L 111.400 130.600 114.700 127.409 C 116.515 125.655,118.000 124.170,118.000 124.109 C 118.000 123.818,117.554 124.235,114.591 127.300 M136.800 138.200 C 135.828 139.190,135.123 140.000,135.233 140.000 C 135.343 140.000,136.228 139.190,137.200 138.200 C 138.172 137.210,138.877 136.400,138.767 136.400 C 138.657 136.400,137.772 137.210,136.800 138.200 M130.400 144.600 C 129.428 145.590,128.723 146.400,128.833 146.400 C 128.943 146.400,129.828 145.590,130.800 144.600 C 131.772 143.610,132.477 142.800,132.367 142.800 C 132.257 142.800,131.372 143.610,130.400 144.600 M174.783 167.300 C 175.764 168.345,176.619 169.200,176.683 169.200 C 176.984 169.200,176.666 168.841,174.900 167.183 L 173.000 165.400 174.783 167.300 M88.909 173.200 C 88.909 174.190,88.987 174.595,89.082 174.100 C 89.178 173.605,89.178 172.795,89.082 172.300 C 88.987 171.805,88.909 172.210,88.909 173.200 M115.344 178.400 C 115.344 180.490,115.412 181.345,115.494 180.300 C 115.576 179.255,115.576 177.545,115.494 176.500 C 115.412 175.455,115.344 176.310,115.344 178.400 M88.901 178.200 C 88.905 179.080,88.987 179.393,89.083 178.895 C 89.179 178.398,89.175 177.678,89.075 177.295 C 88.975 176.913,88.896 177.320,88.901 178.200 M200.900 177.891 C 201.725 177.978,203.075 177.978,203.900 177.891 C 204.725 177.805,204.050 177.734,202.400 177.734 C 200.750 177.734,200.075 177.805,200.900 177.891 M241.800 185.200 C 241.296 185.417,241.222 185.544,241.600 185.544 C 241.930 185.544,242.560 185.389,243.000 185.200 C 243.504 184.983,243.578 184.856,243.200 184.856 C 242.870 184.856,242.240 185.011,241.800 185.200 M204.100 188.676 C 204.485 188.776,205.115 188.776,205.500 188.676 C 205.885 188.575,205.570 188.493,204.800 188.493 C 204.030 188.493,203.715 188.575,204.100 188.676 M222.500 188.676 C 222.885 188.776,223.515 188.776,223.900 188.676 C 224.285 188.575,223.970 188.493,223.200 188.493 C 222.430 188.493,222.115 188.575,222.500 188.676 M211.100 189.097 C 212.695 189.173,215.305 189.173,216.900 189.097 C 218.495 189.021,217.190 188.959,214.000 188.959 C 210.810 188.959,209.505 189.021,211.100 189.097 M107.183 210.100 C 108.841 211.866,109.200 212.184,109.200 211.883 C 109.200 211.819,108.345 210.964,107.300 209.983 L 105.400 208.200 107.183 210.100 M167.885 239.192 C 169.911 241.267,171.623 242.882,171.688 242.782 C 171.753 242.682,170.095 240.985,168.003 239.010 L 164.200 235.421 167.885 239.192 M194.121 239.098 C 196.277 239.171,199.697 239.170,201.721 239.098 C 203.744 239.025,201.980 238.966,197.800 238.967 C 193.620 238.967,191.964 239.026,194.121 239.098 M224.800 244.179 C 224.800 244.289,225.340 244.659,226.000 245.000 C 226.660 245.341,227.200 245.531,227.200 245.421 C 227.200 245.311,226.660 244.941,226.000 244.600 C 225.340 244.259,224.800 244.069,224.800 244.179 M189.505 250.683 C 190.002 250.779,190.722 250.775,191.105 250.675 C 191.487 250.575,191.080 250.496,190.200 250.501 C 189.320 250.505,189.007 250.587,189.505 250.683 M199.905 250.683 C 200.402 250.779,201.122 250.775,201.505 250.675 C 201.887 250.575,201.480 250.496,200.600 250.501 C 199.720 250.505,199.407 250.587,199.905 250.683 M185.700 251.076 C 186.085 251.176,186.715 251.176,187.100 251.076 C 187.485 250.975,187.170 250.893,186.400 250.893 C 185.630 250.893,185.315 250.975,185.700 251.076 M178.856 255.200 C 178.856 255.530,179.011 256.160,179.200 256.600 C 179.417 257.104,179.544 257.178,179.544 256.800 C 179.544 256.470,179.389 255.840,179.200 255.400 C 178.983 254.896,178.856 254.822,178.856 255.200 M232.600 262.800 C 233.906 264.120,235.065 265.200,235.175 265.200 C 235.285 265.200,234.306 264.120,233.000 262.800 C 231.694 261.480,230.535 260.400,230.425 260.400 C 230.315 260.400,231.294 261.480,232.600 262.800 M166.493 264.800 C 166.493 265.570,166.575 265.885,166.676 265.500 C 166.776 265.115,166.776 264.485,166.676 264.100 C 166.575 263.715,166.493 264.030,166.493 264.800 M181.293 266.400 C 181.293 267.170,181.375 267.485,181.476 267.100 C 181.576 266.715,181.576 266.085,181.476 265.700 C 181.375 265.315,181.293 265.630,181.293 266.400 M166.951 270.800 C 166.951 273.330,167.016 274.365,167.096 273.100 C 167.175 271.835,167.175 269.765,167.096 268.500 C 167.016 267.235,166.951 268.270,166.951 270.800 M181.709 270.800 C 181.709 271.790,181.787 272.195,181.882 271.700 C 181.978 271.205,181.978 270.395,181.882 269.900 C 181.787 269.405,181.709 269.810,181.709 270.800 M246.868 270.000 C 246.888 271.039,247.518 272.746,247.532 271.800 C 247.538 271.360,247.389 270.640,247.200 270.200 C 246.989 269.710,246.861 269.632,246.868 270.000 M181.709 276.400 C 181.709 277.390,181.787 277.795,181.882 277.300 C 181.978 276.805,181.978 275.995,181.882 275.500 C 181.787 275.005,181.709 275.410,181.709 276.400 M166.493 276.800 C 166.493 277.570,166.575 277.885,166.676 277.500 C 166.776 277.115,166.776 276.485,166.676 276.100 C 166.575 275.715,166.493 276.030,166.493 276.800 M135.781 278.100 L 134.200 279.800 135.900 278.219 C 137.481 276.748,137.784 276.400,137.481 276.400 C 137.416 276.400,136.651 277.165,135.781 278.100 M240.531 279.800 C 240.533 281.340,240.605 281.921,240.692 281.091 C 240.779 280.261,240.777 279.001,240.689 278.291 C 240.600 277.581,240.529 278.260,240.531 279.800 M181.293 280.800 C 181.293 281.570,181.375 281.885,181.476 281.500 C 181.576 281.115,181.576 280.485,181.476 280.100 C 181.375 279.715,181.293 280.030,181.293 280.800 M247.050 282.050 C 246.909 282.753,246.869 283.402,246.959 283.492 C 247.050 283.583,247.248 283.091,247.400 282.400 C 247.552 281.709,247.593 281.059,247.491 280.958 C 247.389 280.856,247.191 281.347,247.050 282.050 M162.600 289.600 C 162.259 290.260,162.069 290.800,162.179 290.800 C 162.289 290.800,162.659 290.260,163.000 289.600 C 163.341 288.940,163.531 288.400,163.421 288.400 C 163.311 288.400,162.941 288.940,162.600 289.600 M240.400 293.800 C 239.428 294.790,238.723 295.600,238.833 295.600 C 238.943 295.600,239.828 294.790,240.800 293.800 C 241.772 292.810,242.477 292.000,242.367 292.000 C 242.257 292.000,241.372 292.810,240.400 293.800 M100.600 301.600 C 100.446 302.510,100.404 303.338,100.507 303.440 C 100.610 303.543,100.813 302.877,100.960 301.960 C 101.107 301.043,101.148 300.215,101.053 300.120 C 100.958 300.024,100.754 300.690,100.600 301.600 M100.131 307.800 C 100.133 309.340,100.205 309.921,100.292 309.091 C 100.379 308.261,100.377 307.001,100.289 306.291 C 100.200 305.581,100.129 306.260,100.131 307.800 M107.183 326.500 C 108.841 328.266,109.200 328.584,109.200 328.283 C 109.200 328.219,108.345 327.364,107.300 326.383 L 105.400 324.600 107.183 326.500 M141.800 329.200 C 141.296 329.417,141.222 329.544,141.600 329.544 C 141.930 329.544,142.560 329.389,143.000 329.200 C 143.504 328.983,143.578 328.856,143.200 328.856 C 142.870 328.856,142.240 329.011,141.800 329.200 M118.500 331.476 C 118.885 331.576,119.515 331.576,119.900 331.476 C 120.285 331.375,119.970 331.293,119.200 331.293 C 118.430 331.293,118.115 331.375,118.500 331.476 M131.300 331.476 C 131.685 331.576,132.315 331.576,132.700 331.476 C 133.085 331.375,132.770 331.293,132.000 331.293 C 131.230 331.293,130.915 331.375,131.300 331.476 M123.700 331.894 C 124.745 331.976,126.455 331.976,127.500 331.894 C 128.545 331.812,127.690 331.744,125.600 331.744 C 123.510 331.744,122.655 331.812,123.700 331.894 " stroke="none" fill="#e4b4cc" fill-rule="evenodd"></path><path id="path4" d="M243.491 67.489 C 244.201 67.577,245.461 67.579,246.291 67.492 C 247.121 67.405,246.540 67.333,245.000 67.331 C 243.460 67.329,242.781 67.400,243.491 67.489 M251.091 67.489 C 251.801 67.577,253.061 67.579,253.891 67.492 C 254.721 67.405,254.140 67.333,252.600 67.331 C 251.060 67.329,250.381 67.400,251.091 67.489 M273.787 148.100 L 271.400 150.600 273.900 148.213 C 275.275 146.899,276.400 145.774,276.400 145.713 C 276.400 145.417,276.005 145.778,273.787 148.100 M199.105 177.483 C 199.602 177.579,200.322 177.575,200.705 177.475 C 201.087 177.375,200.680 177.296,199.800 177.301 C 198.920 177.305,198.607 177.387,199.105 177.483 M195.507 238.690 C 196.226 238.779,197.306 238.777,197.907 238.686 C 198.508 238.595,197.920 238.522,196.600 238.524 C 195.280 238.526,194.788 238.601,195.507 238.690 M168.400 239.325 C 168.400 239.394,168.985 239.979,169.700 240.625 L 171.000 241.800 169.825 240.500 C 168.730 239.288,168.400 239.016,168.400 239.325 " stroke="none" fill="#d47cac" fill-rule="evenodd"></path></g></svg>