<?xml version="1.0" encoding="UTF-8"?>
<svg version="1.1" xmlns="http://www.w3.org/2000/svg" width="560" height="420">
<path d="M0 0 C3.72548963 1.24182988 3.9042787 2.14148532 5.6796875 5.5390625 C6.44442383 6.98067749 6.44442383 6.98067749 7.22460938 8.45141602 C7.76923828 9.49869873 8.31386719 10.54598145 8.875 11.625 C10.04765677 13.83560311 11.22218305 16.04521536 12.3984375 18.25390625 C12.9975293 19.38199707 13.59662109 20.51008789 14.21386719 21.67236328 C16.9010054 26.67860901 19.69161361 31.623525 22.5 36.5625 C23.03036865 37.49763428 23.5607373 38.43276855 24.10717773 39.39624023 C26.31318512 43.28250714 28.52436742 47.1658054 30.73779297 51.04785156 C42.02414225 70.84989399 42.02414225 70.84989399 46.2890625 79.6640625 C51.66864832 90.15302664 57.70696766 100.33225212 63.62109375 110.52734375 C63.99766113 111.17848145 64.37422852 111.82961914 64.76220703 112.50048828 C65.73944396 114.18646049 66.72298588 115.86877381 67.70703125 117.55078125 C69 120 69 120 69 122 C69.59570801 122.04893906 70.19141602 122.09787811 70.80517578 122.14830017 C77.25403272 122.72893673 83.52605224 123.74956976 89.875 125.00390625 C91.41423882 125.30218575 91.41423882 125.30218575 92.98457336 125.60649109 C96.32385372 126.25442987 99.66190291 126.90849526 103 127.5625 C105.33478064 128.01645954 107.66966148 128.46990405 110.00463867 128.92285156 C113.56128429 129.61285854 117.11786267 130.303193 120.67411804 130.99520874 C130.68452362 132.94292277 140.70107496 134.85708572 150.72045898 136.75799561 C157.35830401 138.01794825 163.99496841 139.28411952 170.63189697 140.54888916 C173.01152737 141.0021959 175.39125993 141.45496371 177.77099609 141.90771484 C181.49579423 142.61673643 185.21997547 143.32891553 188.94369507 144.0435791 C190.29882014 144.30317683 191.65414259 144.56174666 193.00967407 144.81921387 C194.84030934 145.16708052 196.67017912 145.51896845 198.5 145.87109375 C199.5209375 146.06630615 200.541875 146.26151855 201.59375 146.46264648 C204 147 204 147 206 148 C205.49259538 152.39750672 202.91706686 154.86948922 200 158 C199.34 158 198.68 158 198 158 C198 158.66 198 159.32 198 160 C197.34 160 196.68 160 196 160 C195.67 160.99 195.34 161.98 195 163 C193.37897032 164.71108689 191.70496537 166.37253306 190 168 C189.2575 168.7425 188.515 169.485 187.75 170.25 C186.14907782 171.85092218 184.54425962 173.44800139 182.9296875 175.03515625 C182.16914063 175.78667969 181.40859375 176.53820312 180.625 177.3125 C179.56152344 178.35857422 179.56152344 178.35857422 178.4765625 179.42578125 C176.48010643 181.50096193 174.58136519 183.60412089 172.6953125 185.77734375 C168.99120656 190.04338675 165.13880831 194.15265109 161.25 198.25 C156.41099664 203.37163839 151.57907526 208.49827275 146.8125 213.6875 C145.58466797 215.02361328 145.58466797 215.02361328 144.33203125 216.38671875 C142.5933259 218.33511721 140.95440804 220.29712172 139.32421875 222.33203125 C138.55722656 223.21246094 137.79023438 224.09289062 137 225 C136.34 225 135.68 225 135 225 C135 225.66 135 226.32 135 227 C134.34 227 133.68 227 133 227 C133 227.66 133 228.32 133 229 C132.34 229 131.68 229 131 229 C131 229.66 131 230.32 131 231 C130.34 231 129.68 231 129 231 C129 231.66 129 232.32 129 233 C128.34 233 127.68 233 127 233 C127 233.66 127 234.32 127 235 C126.34 235 125.68 235 125 235 C124.64421875 235.84884766 124.64421875 235.84884766 124.28125 236.71484375 C122.71901476 239.50114746 120.80262557 241.35332514 118.5 243.5625 C115.97190847 245.9961985 113.95327066 248.07009401 112 251 C111.96694319 253.20179287 111.96694319 253.20179287 112.390625 255.62109375 C112.52210938 256.54623779 112.65359375 257.47138184 112.7890625 258.42456055 C112.94117188 259.41883057 113.09328125 260.41310059 113.25 261.4375 C113.54949312 263.53608636 113.84632319 265.63505433 114.140625 267.734375 C114.28951172 268.78947266 114.43839844 269.84457031 114.59179688 270.93164062 C115.17834204 275.34055193 115.59765726 279.75862465 116 284.1875 C116.70415423 291.76301964 117.70602493 299.25789091 118.94726562 306.7644043 C119.67360395 311.27855856 120.15439458 315.74583229 120.46875 320.30859375 C120.93280549 326.82009497 121.8747177 333.18795432 122.9375 339.625 C124.5372397 349.65027459 125.80228235 359.6463122 126.7734375 369.74902344 C127.17454882 373.73420276 127.65044619 377.71050552 128.125 381.6875 C128.25672607 382.79460327 128.25672607 382.79460327 128.39111328 383.92407227 C128.59306338 385.61616928 128.79636601 387.3081048 129 389 C123.6597587 388.48130486 119.40839006 387.08848422 114.58203125 384.71875 C113.89104843 384.38922836 113.20006561 384.05970673 112.48814392 383.72019958 C110.2587973 382.65518789 108.03578465 381.57760026 105.8125 380.5 C103.50541985 379.39449097 101.19672854 378.29240146 98.8878479 377.19065857 C97.36585183 376.46428039 95.8443433 375.73687974 94.32333374 375.00843811 C88.50574173 372.22580984 82.64738552 369.54699402 76.75 366.9375 C71.6043813 364.65055836 66.52080746 362.30368655 61.5 359.75 C53.42519309 355.64609814 45.20739417 351.84727615 36.97338867 348.07519531 C35.7491071 347.51384435 34.52490477 346.95232053 33.30078125 346.390625 C32.69229843 346.11148254 32.08381561 345.83234009 31.45689392 345.54473877 C27.32308123 343.63793969 23.23991792 341.64446116 19.16796875 339.609375 C18.09530762 339.08504883 17.02264648 338.56072266 15.91748047 338.02050781 C13.9008954 337.03298684 11.89508007 336.02304633 9.90283203 334.98730469 C5.29556874 332.76400858 2.22869211 331.43682475 -2.78125 333.0234375 C-4.20565183 333.6420709 -5.61435025 334.29885619 -7 335 C-8.06863281 335.49757813 -9.13726562 335.99515625 -10.23828125 336.5078125 C-11.25277344 337.04148437 -12.26726562 337.57515625 -13.3125 338.125 C-18.92425006 341.0138799 -24.61085794 343.67931208 -30.375 346.25 C-32.08333887 347.01300844 -33.79167204 347.77602965 -35.5 348.5390625 C-36.386875 348.93512695 -37.27375 349.33119141 -38.1875 349.73925781 C-50.53937143 355.27615574 -62.86249972 360.84926185 -74.92578125 366.9921875 C-82.08350236 370.5700914 -89.38503534 373.8630839 -96.65161133 377.21313477 C-104.33409843 380.75310466 -104.33409843 380.75310466 -111.96875 384.39453125 C-113.00334351 384.89339844 -113.00334351 384.89339844 -114.05883789 385.40234375 C-115.78085613 386.23661068 -117.49810168 387.08071036 -119.21484375 387.92578125 C-122.07883961 389.03040799 -123.97378712 389.08735263 -127 389 C-126.90643723 388.27877457 -126.81287445 387.55754913 -126.71647644 386.81446838 C-125.81854327 379.89110363 -124.9217845 372.96758789 -124.02622509 366.04391575 C-123.56618747 362.48761271 -123.10575374 358.93136206 -122.64428711 355.37524414 C-120.71341842 340.49349185 -118.80802237 325.61035456 -117.039505 310.70822144 C-116.26831696 304.21222386 -115.47136437 297.72011334 -114.6484375 291.23046875 C-114.54201431 290.38940079 -114.43559113 289.54833282 -114.32594299 288.68177795 C-113.90121363 285.32825148 -113.47569227 281.97483261 -113.046875 278.62182617 C-112.42855825 273.78064522 -111.83182682 268.93778537 -111.26013184 264.09088135 C-111.0210434 262.16914209 -110.73958528 260.25279893 -110.45410156 258.33740234 C-109.58878345 252.2094682 -109.58878345 252.2094682 -112.0625 246.703125 C-113.031875 245.89359375 -114.00125 245.0840625 -115 244.25 C-116.02794217 243.34590628 -117.05398372 242.43964706 -118.078125 241.53125 C-119.04234375 240.6959375 -120.0065625 239.860625 -121 239 C-122.28106658 237.61136295 -123.53612527 236.19774051 -124.75 234.75 C-127.44214823 231.59634064 -130.29304612 228.68540113 -133.25 225.78125 C-135.69818527 223.28934714 -137.94876126 220.64248687 -140.22265625 217.9921875 C-142.59053318 215.33808369 -145.13074482 212.88742797 -147.71484375 210.4453125 C-149 209 -149 209 -149 207 C-149.66 207 -150.32 207 -151 207 C-152.48046875 205.49609375 -152.48046875 205.49609375 -154.1875 203.4375 C-156.53279758 200.6746132 -158.90829405 198.03320243 -161.5 195.5 C-163.89277491 193.14966899 -166.13191112 190.735776 -168.3125 188.1875 C-171.07618029 184.97666245 -173.98619596 181.97732835 -177 179 C-180.62881522 175.41510388 -184.0406286 171.737064 -187.35546875 167.86328125 C-189.00398752 165.99548207 -190.72303581 164.24544376 -192.5 162.5 C-202.43258427 152.70224719 -202.43258427 152.70224719 -204 148 C-192.28696706 144.79598651 -180.34981112 142.62643368 -168.4375 140.3125 C-166.1617756 139.86820634 -163.88605957 139.42386981 -161.61035156 138.97949219 C-148.95965301 136.51503564 -136.30137559 134.09417687 -123.62768555 131.75073242 C-120.06462883 131.09142238 -116.50551181 130.41496395 -112.94848633 129.72387695 C-104.94020735 128.18170642 -97.01573357 126.82638747 -88.8984375 126.015625 C-75.77403699 124.96614336 -75.77403699 124.96614336 -64.65429688 118.76611328 C-60.43518063 113.08693341 -57.86341717 106.79885849 -55.33056641 100.23388672 C-53.21337973 95.0881519 -50.38989773 90.40568269 -47.5625 85.625 C-42.90857506 77.48658715 -38.42162615 69.26657158 -34 61 C-29.07384058 51.79016451 -24.0231598 42.66479893 -18.85058594 33.59130859 C-14.12405367 25.27848002 -9.56597838 16.87874529 -5.04858398 8.45068359 C-4.53239502 7.48984863 -4.01620605 6.52901367 -3.484375 5.5390625 C-3.02772461 4.68521973 -2.57107422 3.83137695 -2.10058594 2.95166016 C-1 1 -1 1 0 0 Z " fill="#848282" transform="translate(279,15)"/>
<path d="M0 0 C0.33 0 0.66 0 1 0 C1.14019558 27.87700627 1.24598379 55.75395966 1.31087303 83.63124752 C1.34180381 96.57532985 1.38396997 109.51919307 1.45263672 122.46313477 C1.51246193 133.7457974 1.55115479 145.02830134 1.56453097 156.31111819 C1.57234931 162.284714 1.59070888 168.25785584 1.63438034 174.23130608 C1.6751701 179.85627963 1.68765588 185.48061311 1.67864609 191.10572052 C1.68029385 193.16766147 1.69219046 195.22962429 1.71523285 197.29143715 C1.92290145 216.8356178 1.92290145 216.8356178 -5 224 C-5.91965469 225.24615542 -6.8256815 226.50261498 -7.7109375 227.7734375 C-8.5970352 228.97537849 -9.48508297 230.1758841 -10.375 231.375 C-11.33999528 232.68348201 -12.30483813 233.99207645 -13.26953125 235.30078125 C-13.96876709 236.24751709 -13.96876709 236.24751709 -14.68212891 237.21337891 C-19.65585893 243.95620149 -24.55484928 250.75356229 -29.4375 257.5625 C-30.09407593 258.4752771 -30.09407593 258.4752771 -30.76391602 259.40649414 C-33.05893106 262.59367106 -33.05893106 262.59367106 -35 266 C-35.66 266 -36.32 266 -37 266 C-37.20625 266.66 -37.4125 267.32 -37.625 268 C-39.14427451 271.31478075 -41.02848204 273.85354168 -43.25 276.7265625 C-45.09088754 279.11807265 -46.86044228 281.55167617 -48.625 284 C-51.99060565 288.64376504 -55.42299556 293.23298666 -58.875 297.8125 C-63.58773782 304.07070154 -68.18433091 310.40089292 -72.71875 316.7890625 C-78.98618979 325.61069864 -85.43010944 334.30385457 -91.85302734 343.01245117 C-96.88096481 349.83182012 -101.87647414 356.6735844 -106.8359375 363.54296875 C-110.99469786 369.28884786 -115.20193919 374.99808106 -119.4375 380.6875 C-119.97020508 381.40768311 -120.50291016 382.12786621 -121.05175781 382.86987305 C-122.34328445 384.598535 -123.6684344 386.30198755 -125 388 C-125.33 388 -125.66 388 -126 388 C-125.41095776 376.68476747 -124.00616158 365.51689207 -122.53219604 354.2895813 C-121.84042888 349.01959397 -121.16158517 343.74793494 -120.48046875 338.4765625 C-120.34796219 337.45411942 -120.21545563 336.43167633 -120.07893372 335.37825012 C-119.04269244 327.37218968 -118.05990369 319.36149652 -117.11816406 311.34375 C-116.35789476 304.90487097 -115.55956145 298.47139517 -114.74609375 292.0390625 C-114.63383957 291.14954391 -114.52158539 290.26002533 -114.40592957 289.34355164 C-113.84453358 284.89604036 -113.28065259 280.44886912 -112.71264648 276.00219727 C-112.20713218 272.03414777 -111.7286976 268.06344252 -111.26013184 264.09088135 C-111.0210434 262.16914209 -110.73958528 260.25279893 -110.45410156 258.33740234 C-109.58878345 252.2094682 -109.58878345 252.2094682 -112.0625 246.703125 C-113.031875 245.89359375 -114.00125 245.0840625 -115 244.25 C-116.02794217 243.34590628 -117.05398372 242.43964706 -118.078125 241.53125 C-119.04234375 240.6959375 -120.0065625 239.860625 -121 239 C-122.28106658 237.61136295 -123.53612527 236.19774051 -124.75 234.75 C-127.44214823 231.59634064 -130.29304612 228.68540113 -133.25 225.78125 C-135.69818527 223.28934714 -137.94876126 220.64248687 -140.22265625 217.9921875 C-142.59053318 215.33808369 -145.13074482 212.88742797 -147.71484375 210.4453125 C-149 209 -149 209 -149 207 C-149.66 207 -150.32 207 -151 207 C-152.48046875 205.49609375 -152.48046875 205.49609375 -154.1875 203.4375 C-156.53279758 200.6746132 -158.90829405 198.03320243 -161.5 195.5 C-163.89277491 193.14966899 -166.13191112 190.735776 -168.3125 188.1875 C-171.07618029 184.97666245 -173.98619596 181.97732835 -177 179 C-180.62881522 175.41510388 -184.0406286 171.737064 -187.35546875 167.86328125 C-189.00398752 165.99548207 -190.72303581 164.24544376 -192.5 162.5 C-202.43258427 152.70224719 -202.43258427 152.70224719 -204 148 C-192.28696706 144.79598651 -180.34981112 142.62643368 -168.4375 140.3125 C-166.1617756 139.86820634 -163.88605957 139.42386981 -161.61035156 138.97949219 C-148.95965301 136.51503564 -136.30137559 134.09417687 -123.62768555 131.75073242 C-120.06462883 131.09142238 -116.50551181 130.41496395 -112.94848633 129.72387695 C-104.94020735 128.18170642 -97.01573357 126.82638747 -88.8984375 126.015625 C-75.77403699 124.96614336 -75.77403699 124.96614336 -64.65429688 118.76611328 C-60.43518063 113.08693341 -57.86341717 106.79885849 -55.33056641 100.23388672 C-53.21337973 95.0881519 -50.38989773 90.40568269 -47.5625 85.625 C-42.90857506 77.48658715 -38.42162615 69.26657158 -34 61 C-29.07384058 51.79016451 -24.0231598 42.66479893 -18.85058594 33.59130859 C-14.12405367 25.27848002 -9.56597838 16.87874529 -5.04858398 8.45068359 C-4.53239502 7.48984863 -4.01620605 6.52901367 -3.484375 5.5390625 C-3.02772461 4.68521973 -2.57107422 3.83137695 -2.10058594 2.95166016 C-1 1 -1 1 0 0 Z " fill="#FEB901" transform="translate(279,15)"/>
<path d="M0 0 C2.87250514 2.87250514 4.34345134 5.15557514 6.265625 8.6875 C6.57591141 9.25388687 6.88619781 9.82027374 7.20588684 10.40382385 C7.87547885 11.62751379 8.54270013 12.85250334 9.20779419 14.0786438 C10.26211584 16.02233613 11.32243467 17.96264066 12.38452148 19.90209961 C13.8575679 22.59245995 15.32858891 25.28391228 16.79833984 27.97607422 C20.19249903 34.18664348 23.62639751 40.3750699 27.0625 46.5625 C27.65643555 47.63564453 28.25037109 48.70878906 28.86230469 49.81445312 C32.30938329 56.02579002 35.83635877 62.18110781 39.45629883 68.29345703 C40.95630426 70.92338906 42.31149892 73.58540377 43.625 76.3125 C49.36178261 88.01738709 56.08302249 99.25666157 62.62109375 110.52734375 C62.99766113 111.17848145 63.37422852 111.82961914 63.76220703 112.50048828 C64.73944396 114.18646049 65.72298588 115.86877381 66.70703125 117.55078125 C68 120 68 120 68 122 C68.59570801 122.04893906 69.19141602 122.09787811 69.80517578 122.14830017 C76.25403272 122.72893673 82.52605224 123.74956976 88.875 125.00390625 C89.90115921 125.20275925 90.92731842 125.40161224 91.98457336 125.60649109 C95.32385372 126.25442987 98.66190291 126.90849526 102 127.5625 C104.33478064 128.01645954 106.66966148 128.46990405 109.00463867 128.92285156 C112.56128429 129.61285854 116.11786267 130.303193 119.67411804 130.99520874 C129.68471547 132.9429601 139.70144517 134.85725422 149.7210083 136.75827026 C167.48895361 140.12969803 185.24765962 143.5473826 203 147 C203 147.66 203 148.32 203 149 C201.9790625 149.3403125 200.958125 149.680625 199.90625 150.03125 C199.21732666 150.26094482 198.52840332 150.49063965 197.81860352 150.72729492 C196.24630471 151.25128415 194.67387192 151.77487152 193.10131836 152.2980957 C188.3468998 153.88077157 183.59561387 155.47225651 178.84765625 157.07421875 C177.80480469 157.42484375 176.76195312 157.77546875 175.6875 158.13671875 C173.65411497 158.82044447 171.6215177 159.50651897 169.58984375 160.1953125 C163.90763495 162.10214537 158.21171665 163.81902045 152.41479492 165.34350586 C148.55130572 166.39384682 144.78620966 167.70281165 141 169 C138.77399611 169.74386124 136.54736284 170.48584012 134.3203125 171.2265625 C129.37194318 172.87354071 124.42587407 174.5271376 119.48266602 176.18954468 C116.46287076 177.20474497 113.44216061 178.21720815 110.42138672 179.22949219 C108.89368026 179.74208432 107.36633421 180.25575189 105.83935547 180.77050781 C96.88479426 183.78795147 87.92080776 186.69612772 78.82546997 189.26391602 C74.75019597 190.42732047 70.79904058 191.77947145 66.84204102 193.29718018 C62.4673401 194.96632136 58.00397273 196.3954523 53.5625 197.875 C52.49990967 198.22941162 51.43731934 198.58382324 50.3425293 198.94897461 C43.7083493 201.14567319 37.05500959 203.21376655 30.33374023 205.12524414 C23.43475029 207.10919618 16.64884827 209.42281861 9.86450195 211.76586914 C9.01460693 212.05582764 8.16471191 212.34578613 7.2890625 212.64453125 C6.15525146 213.03668823 6.15525146 213.03668823 4.99853516 213.43676758 C3 214 3 214 0 214 C0 143.38 0 72.76 0 0 Z " fill="#981139" transform="translate(280,15)"/>
<path d="M0 0 C2.83584439 2.80785263 5.53320022 5.49674056 7.83984375 8.7578125 C8.33806641 9.45583984 8.83628906 10.15386719 9.34960938 10.87304688 C9.87361328 11.61619141 10.39761719 12.35933594 10.9375 13.125 C12.09156817 14.74281543 13.24654632 16.35998204 14.40234375 17.9765625 C14.99515137 18.80704102 15.58795898 19.63751953 16.19873047 20.49316406 C19.09464722 24.52342608 22.04729775 28.51125464 25 32.5 C30.20107183 39.53525576 35.34050835 46.61221305 40.45043945 53.71386719 C43.48673639 57.92651337 46.55864251 62.10563613 49.6875 66.25 C53.64669572 71.49539542 57.47260831 76.8288913 61.28125 82.18359375 C69.33333922 93.50092356 77.51413697 104.72295481 85.76855469 115.89331055 C89.71359667 121.23769499 93.6193712 126.60869573 97.5 132 C102.06499612 138.34178683 106.67245772 144.65041034 111.3125 150.9375 C111.89918457 151.73341553 112.48586914 152.52933105 113.09033203 153.34936523 C115.60644754 156.76174411 118.12601007 160.17129996 120.66015625 163.5703125 C121.39105469 164.55773437 122.12195313 165.54515625 122.875 166.5625 C123.49117188 167.38878906 124.10734375 168.21507812 124.7421875 169.06640625 C126 171 126 171 126 173 C121.54480496 172.35861332 117.79096661 170.65834913 113.77734375 168.71875 C113.08353104 168.38922836 112.38971832 168.05970673 111.67488098 167.72019958 C109.42676771 166.6515965 107.18221341 165.57572362 104.9375 164.5 C101.84900129 163.02971424 98.75858534 161.56348395 95.66796875 160.09765625 C94.91125885 159.73821426 94.15454895 159.37877228 93.37490845 159.00843811 C87.53451671 156.23911138 81.65921328 153.55695634 75.75 150.9375 C70.60453917 148.65016262 65.52083564 146.30370088 60.5 143.75 C53.61772487 140.25218487 46.62898982 136.99593998 39.625 133.75 C38.72640762 133.33305374 38.72640762 133.33305374 37.80966187 132.90768433 C31.18311499 129.83442098 24.54555726 126.78798018 17.88671875 123.78515625 C16.77796387 123.28338867 15.66920898 122.78162109 14.52685547 122.26464844 C12.42036508 121.31299989 10.31138945 120.36682914 8.19970703 119.42675781 C7.26368652 119.00362305 6.32766602 118.58048828 5.36328125 118.14453125 C4.54126221 117.77690674 3.71924316 117.40928223 2.87231445 117.03051758 C1 116 1 116 0 114 C-0.09232636 112.47947633 -0.1219285 110.95493331 -0.12025452 109.43161011 C-0.12162918 108.46964722 -0.12300385 107.50768433 -0.12442017 106.51657104 C-0.12082489 105.4577774 -0.11722961 104.39898376 -0.11352539 103.30810547 C-0.11367142 102.19590637 -0.11381744 101.08370728 -0.1139679 99.93780518 C-0.1132691 96.2475797 -0.10547824 92.5574042 -0.09765625 88.8671875 C-0.09579195 86.31413806 -0.0943681 83.76108826 -0.09336853 81.20803833 C-0.08993553 75.16613084 -0.08204747 69.12424492 -0.07201904 63.08234608 C-0.06085045 56.20456124 -0.05534557 49.32677555 -0.05032361 42.44898391 C-0.03986466 28.2993126 -0.02226986 14.14965729 0 0 Z " fill="#2B0369" transform="translate(280,231)"/>
<path d="M0 0 C0.33 0 0.66 0 1 0 C1.33 37.95 1.66 75.9 2 115 C-20.95210095 125.92957188 -20.95210095 125.92957188 -27.52392578 128.88476562 C-32.51385342 131.13225029 -37.47337222 133.44623592 -42.4375 135.75 C-44.22051514 136.57721558 -44.22051514 136.57721558 -46.03955078 137.42114258 C-56.95119523 142.49056384 -67.82540742 147.63839607 -78.69924927 152.78826904 C-88.9218101 157.62779441 -99.16381877 162.41226222 -109.48193359 167.0456543 C-110.26906738 167.39926025 -111.05620117 167.75286621 -111.8671875 168.1171875 C-112.58213379 168.4380835 -113.29708008 168.75897949 -114.03369141 169.08959961 C-115.84238058 169.92702225 -117.61864252 170.8335636 -119.390625 171.74609375 C-122.18169367 173.08731088 -123.9451473 173.26954583 -127 173 C-126.21625 172.13375 -125.4325 171.2675 -124.625 170.375 C-121.10072884 166.27026065 -118.00230002 161.88261611 -114.88525391 157.46826172 C-112.14982034 153.59790339 -109.3594464 149.78054241 -106.5 146 C-103.26259662 141.71386031 -100.10811484 137.37994252 -97 133 C-93.13062702 127.54838053 -89.16157736 122.1821314 -85.13671875 116.84375 C-79.63321205 109.51915607 -74.33001219 102.05746449 -69.0625 94.5625 C-64.83275348 88.54637531 -60.51505189 82.61926823 -56.078125 76.75390625 C-51.78532397 71.06513797 -47.56083906 65.32747695 -43.5703125 59.421875 C-43.16296875 58.82173584 -42.755625 58.22159668 -42.3359375 57.60327148 C-41.540699 56.42724842 -40.75142389 55.2471664 -39.96875 54.06274414 C-39.02912143 52.67336979 -38.02019803 51.33133727 -37 50 C-36.34 50 -35.68 50 -35 50 C-34.63261719 48.93652344 -34.63261719 48.93652344 -34.2578125 47.8515625 C-32.83029759 44.61527094 -31.03863915 42.17189939 -28.875 39.375 C-28.0579169 38.30780955 -27.24152398 37.24009035 -26.42578125 36.171875 C-25.62527344 35.12515625 -24.82476562 34.0784375 -24 33 C-20.00447694 27.59020089 -16.08527219 22.1257774 -12.18310547 16.6484375 C-3.71041667 4.75694444 -3.71041667 4.75694444 0 0 Z " fill="#8E59E5" transform="translate(279,231)"/>
<path d="M0 0 C-6.19900996 8.60552713 -12.40168054 17.20758619 -18.6875 25.75 C-22.36322554 30.74957841 -26.0112104 35.7679394 -29.625 40.8125 C-30.05127686 41.40579102 -30.47755371 41.99908203 -30.91674805 42.61035156 C-33.12896055 45.69979559 -33.12896055 45.69979559 -35 49 C-35.66 49 -36.32 49 -37 49 C-37.309375 49.99 -37.309375 49.99 -37.625 51 C-39.14427451 54.31478075 -41.02848204 56.85354168 -43.25 59.7265625 C-45.09088754 62.11807265 -46.86044228 64.55167617 -48.625 67 C-51.99060565 71.64376504 -55.42299556 76.23298666 -58.875 80.8125 C-63.58773782 87.07070154 -68.18433091 93.40089292 -72.71875 99.7890625 C-78.98618979 108.61069864 -85.43010944 117.30385457 -91.85302734 126.01245117 C-96.88096481 132.83182012 -101.87647414 139.6735844 -106.8359375 146.54296875 C-110.99469786 152.28884786 -115.20193919 157.99808106 -119.4375 163.6875 C-120.23655762 164.76777466 -120.23655762 164.76777466 -121.05175781 165.86987305 C-122.34328445 167.598535 -123.6684344 169.30198755 -125 171 C-125.33 171 -125.66 171 -126 171 C-125.41095776 159.68476747 -124.00616158 148.51689207 -122.53219604 137.2895813 C-121.84042888 132.01959397 -121.16158517 126.74793494 -120.48046875 121.4765625 C-120.34796219 120.45411942 -120.21545563 119.43167633 -120.07893372 118.37825012 C-119.15983786 111.27726198 -118.27400517 104.17374092 -117.4375 97.0625 C-116.24765167 87.00164119 -115.01989313 76.94568633 -113.77249146 66.89181519 C-113.55255501 65.11631473 -113.33351158 63.34070338 -113.115448 61.56497192 C-112.61379103 57.48243997 -112.10053315 53.40249303 -111.55419922 49.32568359 C-111.19372947 46.62516375 -110.91253881 43.95925236 -110.68408203 41.24072266 C-109.90948028 33.75215619 -109.90948028 33.75215619 -107.46020508 31.7265625 C-105.31590597 30.87457324 -103.26516367 30.43452435 -101 30 C-99.34075464 29.47977346 -97.68721885 28.94107554 -96.0390625 28.38671875 C-94.23492183 27.81857313 -92.43021074 27.25223639 -90.625 26.6875 C-83.5417921 24.4547949 -76.47635677 22.18139733 -69.4375 19.8125 C-63.38744795 17.77795752 -57.31598438 15.84799023 -51.20703125 13.99609375 C-47.62029853 12.88206593 -44.05922703 11.69816907 -40.5 10.5 C-33.70042131 8.21559759 -26.8673824 6.07099312 -20 4 C-18.50511531 3.5354555 -17.01032941 3.07059301 -15.515625 2.60546875 C-13.96889346 2.13234324 -12.42201962 1.65968269 -10.875 1.1875 C-10.13975098 0.95611328 -9.40450195 0.72472656 -8.64697266 0.48632812 C-3.34075701 -1.11358567 -3.34075701 -1.11358567 0 0 Z " fill="#FEE04E" transform="translate(279,232)"/>
<path d="M0 0 C8.03337562 2.056816 15.81475296 4.59788111 23.625 7.375 C30.93524075 9.94349078 38.22720488 12.46504274 45.6875 14.5625 C53.41057856 16.73383866 60.93813865 19.3863056 68.49951172 22.06103516 C74.06618937 24.01734316 79.63284743 25.84036144 85.3125 27.4375 C93.82395621 29.83463405 102.14230611 32.75794375 110.4777832 35.70288086 C116.9475801 37.98066887 123.44510646 40.09123922 130.00878906 42.08227539 C133.94951007 43.29131639 137.84922704 44.60646974 141.75 45.9375 C147.52795164 47.88983364 153.32170882 49.7062896 159.1875 51.375 C167.12222524 53.63883836 174.87421705 56.36000931 182.65136719 59.11083984 C190.03194909 61.70586738 197.43443598 64.0069918 205 66 C204 68 204 68 202.30444336 68.69848633 C201.57362549 68.90755615 200.84280762 69.11662598 200.08984375 69.33203125 C199.27322266 69.57042725 198.45660156 69.80882324 197.61523438 70.05444336 C196.73158203 70.30460205 195.84792969 70.55476074 194.9375 70.8125 C193.09225849 71.35091371 191.24720834 71.88998369 189.40234375 72.4296875 C188.02344971 72.82945801 188.02344971 72.82945801 186.61669922 73.23730469 C176.12463165 76.29545164 165.80636828 79.7455045 155.51196289 83.40722656 C149.3296668 85.58606177 143.10332802 87.49930359 136.80102539 89.296875 C132.97243727 90.3958258 129.22626836 91.59354382 125.5 93 C119.41548657 95.28867019 113.21593261 97.12117924 106.953125 98.8515625 C104.62047065 99.49976495 102.53486438 100.19761542 100.296875 101.1484375 C97.83570179 102.11342987 96.60238223 102.5301149 94 102 C89.74435988 98.80219042 86.43930386 95.04562491 83 91 C82.33742188 90.24976563 81.67484375 89.49953125 80.9921875 88.7265625 C79.85453927 87.43586743 78.72643413 86.13667999 77.609375 84.828125 C75.43628215 82.35966031 73.09527631 80.08464637 70.75 77.78125 C68.30181473 75.28934714 66.05123874 72.64248687 63.77734375 69.9921875 C61.40946682 67.33808369 58.86925518 64.88742797 56.28515625 62.4453125 C55 61 55 61 55 59 C54.34 59 53.68 59 53 59 C51.51953125 57.49609375 51.51953125 57.49609375 49.8125 55.4375 C47.46720242 52.6746132 45.09170595 50.03320243 42.5 47.5 C40.10722509 45.14966899 37.86808888 42.735776 35.6875 40.1875 C32.92381971 36.97666245 30.01380404 33.97732835 27 31 C23.37118478 27.41510388 19.9593714 23.737064 16.64453125 19.86328125 C14.99601248 17.99548207 13.27696419 16.24544376 11.5 14.5 C1.56741573 4.70224719 1.56741573 4.70224719 0 0 Z " fill="#FEBA00" transform="translate(75,163)"/>
<path d="M0 0 C1.70703125 1.27734375 1.70703125 1.27734375 3 3 C3.45761719 3.57878906 3.91523438 4.15757812 4.38671875 4.75390625 C5.03060547 5.64916016 5.03060547 5.64916016 5.6875 6.5625 C6.12449219 7.16191406 6.56148437 7.76132813 7.01171875 8.37890625 C8 10 8 10 8 12 C8.66 12 9.32 12 10 12 C11.5078125 13.8984375 11.5078125 13.8984375 13.125 16.375 C13.66382813 17.18710938 14.20265625 17.99921875 14.7578125 18.8359375 C16 21 16 21 16 23 C16.66 23 17.32 23 18 23 C18.33 24.32 18.66 25.64 19 27 C19.66 27 20.32 27 21 27 C22.48046875 29.08984375 22.48046875 29.08984375 24.1875 31.9375 C27.08231351 36.64461272 30.20605999 40.95813445 33.71484375 45.22265625 C35 47 35 47 35 49 C35.66 49 36.32 49 37 49 C38.5078125 50.8984375 38.5078125 50.8984375 40.125 53.375 C40.66382813 54.18710938 41.20265625 54.99921875 41.7578125 55.8359375 C43 58 43 58 43 60 C43.66 60 44.32 60 45 60 C46.65625 62.265625 46.65625 62.265625 48.5 65.25 C49.1084375 66.22453125 49.716875 67.1990625 50.34375 68.203125 C51.66713848 70.43790366 52.88436415 72.65716472 54 75 C54.66 75 55.32 75 56 75 C57.5078125 76.8984375 57.5078125 76.8984375 59.125 79.375 C59.66382813 80.18710938 60.20265625 80.99921875 60.7578125 81.8359375 C62 84 62 84 62 86 C62.66 86 63.32 86 64 86 C64.33 87.32 64.66 88.64 65 90 C65.66 90 66.32 90 67 90 C67 90.66 67 91.32 67 92 C62.0711125 91.15331994 57.34282831 89.69016091 52.5625 88.25 C51.66942139 87.98195557 50.77634277 87.71391113 49.85620117 87.43774414 C43.63922327 85.55023768 37.5513897 83.44388273 31.453125 81.203125 C27.69199113 79.89268469 23.8920783 78.77506615 20.0625 77.6875 C13.11388796 75.70940453 6.31005764 73.41019449 -0.5 71 C-7.06285252 68.67835216 -13.6104674 66.44703194 -20.3125 64.5625 C-28.80107983 62.1729982 -37.08125451 59.22815058 -45.39868164 56.3059082 C-52.31524264 53.8896932 -59.24455356 51.66645521 -66.29296875 49.671875 C-71.7758073 48.10845173 -77.09109567 46.19985936 -82.44140625 44.23828125 C-86.24260742 42.91558008 -90.06734099 41.78610817 -93.9375 40.6875 C-103.89417292 37.85035858 -113.61764044 34.36681445 -123.375 30.91699219 C-127.23580142 29.56829705 -131.11498328 28.27701939 -135 27 C-135 26.34 -135 25.68 -135 25 C-115.65071491 21.05733815 -96.27973777 17.26965085 -76.85766602 13.70214844 C-65.60196732 11.63303324 -54.36234851 9.49647121 -43.13671875 7.26953125 C-41.9733902 7.03912643 -40.81006165 6.80872162 -39.61148071 6.57133484 C-33.8982065 5.43860121 -28.1864773 4.2987152 -22.4765625 3.14916992 C-20.39456702 2.73468355 -18.31253746 2.32036835 -16.23046875 1.90625 C-15.28241867 1.7129158 -14.33436859 1.5195816 -13.35758972 1.32038879 C-8.86085077 0.43122108 -4.60861828 -0.37166276 0 0 Z " fill="#FEE04D" transform="translate(212,137)"/>
<path d="M0 0 C0.495 0.99 0.495 0.99 1 2 C2.98875773 2.39695876 2.98875773 2.39695876 5.3828125 2.49975586 C10.97556335 2.95617419 16.37430024 3.91715476 21.875 5.00390625 C22.90115921 5.20275925 23.92731842 5.40161224 24.98457336 5.60649109 C28.32385372 6.25442987 31.66190291 6.90849526 35 7.5625 C37.33478064 8.01645954 39.66966148 8.46990405 42.00463867 8.92285156 C45.56128429 9.61285854 49.11786267 10.303193 52.67411804 10.99520874 C62.68471547 12.9429601 72.70144517 14.85725422 82.7210083 16.75827026 C100.48895361 20.12969803 118.24765962 23.5473826 136 27 C136 27.66 136 28.32 136 29 C134.46859375 29.51046875 134.46859375 29.51046875 132.90625 30.03125 C132.21732666 30.26094482 131.52840332 30.49063965 130.81860352 30.72729492 C129.24630471 31.25128415 127.67387192 31.77487152 126.10131836 32.2980957 C121.3468998 33.88077157 116.59561387 35.47225651 111.84765625 37.07421875 C110.28337891 37.60015625 110.28337891 37.60015625 108.6875 38.13671875 C106.65411497 38.82044447 104.6215177 39.50651897 102.58984375 40.1953125 C96.90763495 42.10214537 91.21171665 43.81902045 85.41479492 45.34350586 C81.55130572 46.39384682 77.78620966 47.70281165 74 49 C71.77399611 49.74386124 69.54736284 50.48584012 67.3203125 51.2265625 C62.37194318 52.87354071 57.42587407 54.5271376 52.48266602 56.18954468 C49.46287076 57.20474497 46.44216061 58.21720815 43.42138672 59.22949219 C41.89368026 59.74208432 40.36633421 60.25575189 38.83935547 60.77050781 C29.88479426 63.78795147 20.92080776 66.69612772 11.82546997 69.26391602 C7.75019597 70.42732047 3.79904058 71.77947145 -0.15795898 73.29718018 C-4.5326599 74.96632136 -8.99602727 76.3954523 -13.4375 77.875 C-14.50009033 78.22941162 -15.56268066 78.58382324 -16.6574707 78.94897461 C-23.29067532 81.14535022 -29.94227986 83.21677057 -36.6640625 85.12304688 C-43.60062966 87.11359874 -50.41588256 89.46209453 -57.22338867 91.85375977 C-58.50306519 92.29353149 -58.50306519 92.29353149 -59.80859375 92.7421875 C-60.95026001 93.14219971 -60.95026001 93.14219971 -62.11499023 93.55029297 C-64 94 -64 94 -66 93 C-59.21609165 83.29627761 -52.32998868 73.68045391 -45.28686523 64.16308594 C-39.66615892 56.56390951 -34.1309033 48.90493985 -28.60888672 41.23388672 C-26.45024061 38.23667702 -24.28752456 35.242418 -22.12426758 32.24853516 C-21.04926902 30.76037392 -19.97487825 29.27177344 -18.90112305 27.78271484 C-16.05529157 23.83726898 -13.1989323 19.89997509 -10.328125 15.97265625 C-9.72935547 15.15087891 -9.13058594 14.32910156 -8.51367188 13.48242188 C-7.36184939 11.90201428 -6.20702943 10.32378573 -5.04882812 8.74804688 C-4.53255859 8.03841797 -4.01628906 7.32878906 -3.484375 6.59765625 C-3.02772461 5.97383057 -2.57107422 5.35000488 -2.10058594 4.70727539 C-0.82149327 2.87819335 -0.82149327 2.87819335 0 0 Z " fill="#E43159" transform="translate(347,135)"/>
<path d="M0 0 C9.3044961 2.40379776 18.35409875 5.40610428 27.4453125 8.5078125 C33.6196367 10.5945054 39.80793973 12.54794949 46.0703125 14.34765625 C56.08229561 17.23809399 65.90616065 20.65043804 75.75 24.0625 C79.28553256 25.28525054 82.82191692 26.50548735 86.359375 27.72265625 C87.61506287 28.15476913 87.61506287 28.15476913 88.89611816 28.59561157 C95.55571863 30.87484769 102.2501099 33.00177898 109 35 C113.85017889 61.99932916 113.85017889 61.99932916 114.4375 71.0625 C114.87186679 77.5780018 115.83617505 83.96837797 116.89624023 90.40649414 C117.63919812 95.04939204 118.14974753 99.64374702 118.47265625 104.3359375 C118.93439772 110.8383998 119.87621297 117.19701081 120.9375 123.625 C122.5372397 133.65027459 123.80228235 143.6463122 124.7734375 153.74902344 C125.17454882 157.73420276 125.65044619 161.71050552 126.125 165.6875 C126.21281738 166.42556885 126.30063477 167.1636377 126.39111328 167.92407227 C126.59306338 169.61616928 126.79636601 171.3081048 127 173 C126.34 173 125.68 173 125 173 C123.16673512 170.59768478 121.44769613 168.18372693 119.75 165.6875 C118.6619491 164.11594472 117.57203459 162.54567842 116.48046875 160.9765625 C115.90989746 160.15575195 115.33932617 159.33494141 114.75146484 158.48925781 C111.92026736 154.46543714 108.99348298 150.51393258 106.0625 146.5625 C101.50166861 140.4031235 96.97621036 134.22116216 92.5 128 C88.0399169 121.80336743 83.53747211 115.64018595 79 109.5 C72.72817954 101.01203169 66.53976312 92.46614734 60.37207031 83.90234375 C58.58860786 81.42961431 56.79544386 78.96404011 55 76.5 C52.69707657 73.33950257 50.40254762 70.17320849 48.1171875 67 C39.55712594 55.11635748 30.88824764 43.31623936 22.18115234 31.54003906 C16.12406125 23.34619934 10.06918725 15.15132027 4.125 6.875 C3.70186523 6.28871826 3.27873047 5.70243652 2.84277344 5.09838867 C0 1.1191107 0 1.1191107 0 0 Z " fill="#C0BFBF" transform="translate(281,231)"/>
<path d="M0 0 C0.33 0.66 0.66 1.32 1 2 C2.98 1.67 4.96 1.34 7 1 C6 3 6 3 3.75 4.125 C0.98386705 5.00513321 -1.12048351 5.1645438 -4 5 C-2.68 3.35 -1.36 1.7 0 0 Z " fill="#AB7AA0" transform="translate(156,399)"/>
<path d="M0 0 C4.42857143 5.14285714 4.42857143 5.14285714 5 9 C2 8 2 8 0 5 C-0.125 2.3125 -0.125 2.3125 0 0 Z " fill="#B0353F" transform="translate(335,114)"/>
</svg>
